<svg width="24" height="24" viewBox="0 0 24 24" fill="none" xmlns="http://www.w3.org/2000/svg">
<g clip-path="url(#clip0_3334_4645)">
<path d="M22.8 12.7998H22.4V4.3998C22.4 2.39979 20.8 0.799805 18.8 0.799805C17.0295 0.799805 15.7562 2.11259 15.6137 4.0361C14.6842 4.21179 14 5.01232 14 5.99979C14 6.23979 14.16 6.39977 14.4 6.39977H17.6C17.84 6.39977 18 6.23979 18 5.99979C18 5.02324 17.3309 4.22937 16.4172 4.04196C16.5367 2.7709 17.3001 1.59977 18.8 1.59977C20.36 1.59977 21.6 2.83976 21.6 4.39976V12.7998H9.56133C9.38039 11.8772 8.58267 11.1998 7.60003 11.1998C7.20005 10.7198 6.64003 10.3998 6.00005 10.3998C5.24006 10.3998 4.56005 10.8398 4.24003 11.4798C3.92002 11.3198 3.56002 11.1998 3.20002 11.1998C2.21738 11.1998 1.41966 11.8772 1.23872 12.7998H1.2C0.519984 12.7998 0 13.3197 0 13.9998C0 14.6798 0.519984 15.1998 1.2 15.1998H1.6807L2.76 19.4798C3.08002 20.7198 4.2 21.5998 5.48002 21.5998H5.80003L5.28005 22.6398C5.16005 22.8398 5.24006 23.0798 5.44003 23.1598C5.48002 23.1998 5.56003 23.1998 5.60002 23.1998C5.76 23.1998 5.88 23.1198 5.96002 22.9998L6.66 21.5998H17.76L18.44 22.9598C18.52 23.1198 18.64 23.1998 18.8 23.1998C18.88 23.1998 18.92 23.1998 18.96 23.1198C19.12 23.0397 19.2 22.7997 19.12 22.5998L18.6189 21.5976C19.8573 21.5537 20.9283 20.6887 21.24 19.5198L22.3294 15.1998H22.8C23.48 15.1998 24 14.6798 24 13.9998C24 13.3198 23.48 12.7998 22.8 12.7998ZM17.16 5.59981H14.88C15.04 5.11981 15.52 4.79979 16.04 4.79979C16.56 4.79979 17 5.11981 17.16 5.59981ZM3.20002 11.9998C3.56002 11.9998 3.88003 12.1598 4.16002 12.4398C4.24003 12.5598 4.40002 12.5998 4.56 12.5598C4.71998 12.5198 4.8 12.3998 4.83998 12.2398C4.95998 11.6398 5.43998 11.1998 6.03998 11.1998C6.48 11.1998 6.87998 11.3998 7.08 11.7998C7.16002 11.9598 7.35998 12.0398 7.52002 11.9998C7.56 11.9998 7.60003 11.9998 7.64002 11.9998C8.16 11.9998 8.60002 12.3198 8.76 12.7998H2.07998C2.24002 12.3198 2.67998 11.9998 3.20002 11.9998ZM20.52 19.2798C20.28 20.1598 19.48 20.7998 18.56 20.7998H5.52C4.59998 20.7998 3.80002 20.1598 3.56002 19.2798L2.52 15.1998H21.48L20.52 19.2798ZM22.8 14.3998H22H2.00002H1.2C0.96 14.3998 0.800016 14.2398 0.800016 13.9998C0.800016 13.7598 0.96 13.5998 1.2 13.5998H1.59998H9.19997H22.8C23.04 13.5998 23.2 13.7598 23.2 13.9998C23.2 14.2398 23.04 14.3998 22.8 14.3998Z" fill="#0F1015"/>
<path d="M14.4 8.19969C14.64 8.19969 14.8 8.03971 14.8 7.79971V7.59969C14.8 7.35969 14.64 7.19971 14.4 7.19971C14.16 7.19971 14 7.35969 14 7.59969V7.79971C14 8.03971 14.16 8.19969 14.4 8.19969Z" fill="#0F1015"/>
<path d="M14.4 10.0398C14.64 10.0398 14.8 9.83977 14.8 9.63981V9.19979C14.8 8.95979 14.64 8.7998 14.4 8.7998C14.16 8.7998 14 8.95979 14 9.19979V9.63981C14 9.87976 14.16 10.0398 14.4 10.0398Z" fill="#0F1015"/>
<path d="M14.4 11.5996C14.64 11.5996 14.8 11.4396 14.8 11.1996V10.9996C14.8 10.7596 14.64 10.5996 14.4 10.5996C14.16 10.5996 14 10.7596 14 10.9996V11.1996C14 11.4396 14.16 11.5996 14.4 11.5996Z" fill="#0F1015"/>
<path d="M16 8.19969C16.24 8.19969 16.3999 8.03971 16.3999 7.79971V7.59969C16.3999 7.35969 16.24 7.19971 16 7.19971C15.76 7.19971 15.6 7.35969 15.6 7.59969V7.79971C15.6 8.03971 15.76 8.19969 16 8.19969Z" fill="#0F1015"/>
<path d="M15.6 9.6398C15.6 9.8798 15.76 10.0398 16 10.0398C16.24 10.0398 16.3999 9.83977 16.3999 9.6398V9.19979C16.3999 8.95979 16.24 8.7998 16 8.7998C15.76 8.7998 15.6 8.95979 15.6 9.19979V9.6398Z" fill="#0F1015"/>
<path d="M15.6 11.1996C15.6 11.4396 15.76 11.5996 16 11.5996C16.24 11.5996 16.3999 11.4396 16.3999 11.1996V10.9996C16.3999 10.7596 16.24 10.5996 16 10.5996C15.76 10.5996 15.6 10.7596 15.6 10.9996V11.1996Z" fill="#0F1015"/>
<path d="M17.6001 8.19969C17.8401 8.19969 18 8.03971 18 7.79971V7.59969C18 7.35969 17.8401 7.19971 17.6001 7.19971C17.3601 7.19971 17.2001 7.35969 17.2001 7.59969V7.79971C17.2 8.03971 17.3601 8.19969 17.6001 8.19969Z" fill="#0F1015"/>
<path d="M17.2 9.6398C17.2 9.8798 17.3599 10.0398 17.5999 10.0398C17.8399 10.0398 18 9.83982 18 9.6398V9.19979C18 8.95979 17.84 8.7998 17.6 8.7998C17.36 8.7998 17.2 8.95979 17.2 9.19979V9.6398H17.2Z" fill="#0F1015"/>
<path d="M17.2 11.1996C17.2 11.4396 17.3599 11.5996 17.5999 11.5996C17.8399 11.5996 17.9999 11.4396 17.9999 11.1996V10.9996C17.9999 10.7596 17.8399 10.5996 17.5999 10.5996C17.3599 10.5996 17.2 10.7596 17.2 10.9996V11.1996Z" fill="#0F1015"/>
</g>
<defs>
<clipPath id="clip0_3334_4645">
<rect width="24" height="24" fill="white"/>
</clipPath>
</defs>
</svg>
