<svg width="24" height="18" viewBox="0 0 24 18" fill="none" xmlns="http://www.w3.org/2000/svg">
<path d="M23 9.24999V7.24997C23 5.72996 22.02 4.74999 20.5 4.74999H9C7.47998 4.74999 6.50002 5.73 6.50002 7.24997V9.23433L1.635 9.24497H0.999984V0.764957C0.999984 0.514972 0.819984 0.289973 0.574969 0.254957C0.264984 0.209957 0 0.449957 0 0.749957V17.235C0 17.4849 0.18 17.7099 0.425016 17.745C0.735 17.79 1.00003 17.55 1.00003 17.25V14.25H23V17.235C23 17.4849 23.18 17.7099 23.425 17.745C23.735 17.79 24 17.55 24 17.25V10.25C24 9.56996 23.68 9.25496 23 9.24999ZM7.5 7.24997C7.5 5.94497 8.43998 5.74997 9 5.74997H20.5C21.06 5.74997 22 5.94497 22 7.24997V9.24999H7.5V7.24997ZM23 13.25H0.999984V10.25H23V13.25Z" fill="#0F1015"/>
<path d="M3.77344 3.67969C2.23955 3.67969 0.996094 4.92314 0.996094 6.45703C0.996094 7.99092 2.23955 9.23438 3.77344 9.23438C5.30733 9.23438 6.55078 7.99092 6.55078 6.45703C6.55078 4.92314 5.30733 3.67969 3.77344 3.67969ZM3.77344 8.34375C2.73145 8.34375 1.88672 7.49902 1.88672 6.45703C1.88672 5.41505 2.73145 4.57031 3.77344 4.57031C4.81542 4.57031 5.66016 5.41505 5.66016 6.45703C5.66016 7.49902 4.81547 8.34375 3.77344 8.34375Z" fill="#0F1015"/>
</svg>
