<svg width="24" height="24" viewBox="0 0 24 24" fill="none" xmlns="http://www.w3.org/2000/svg">
<path d="M5.41047 11.04C4.64374 10.9273 3.87172 10.854 3.09747 10.8205C2.75797 10.7995 2.31047 10.9765 2.23297 11.8325C2.21851 12.0477 2.23929 12.2639 2.29447 12.4725C2.3459 12.6902 2.46184 12.8875 2.62714 13.0383C2.79243 13.1891 2.9994 13.2866 3.22097 13.318L6.53047 13.784C6.547 13.7867 6.56372 13.788 6.58047 13.788C6.64512 13.788 6.70868 13.7714 6.76499 13.7396C6.8213 13.7079 6.86845 13.6621 6.90185 13.6067C6.93526 13.5514 6.9538 13.4884 6.95566 13.4237C6.95752 13.3591 6.94264 13.2951 6.91247 13.238C5.82397 11.1675 5.54497 11.0815 5.41047 11.04ZM3.32547 12.5755C3.25277 12.5643 3.18508 12.5317 3.13115 12.4817C3.07722 12.4316 3.03954 12.3666 3.02297 12.295C2.98809 12.1665 2.97358 12.0334 2.97997 11.9005C2.98116 11.7866 3.00691 11.6744 3.05547 11.5715H3.06597C3.92097 11.625 4.88247 11.7025 5.14297 11.7485C5.42449 12.1251 5.67625 12.5232 5.89597 12.939L3.32547 12.5755Z" fill="#0F1015"/>
<path d="M20.781 10.8204C20.0067 10.8539 19.2347 10.9272 18.468 11.0399C18.3335 11.0814 18.054 11.1674 16.964 13.2399C16.9338 13.2971 16.9189 13.3611 16.9208 13.4257C16.9227 13.4903 16.9412 13.5533 16.9746 13.6087C17.008 13.664 17.0552 13.7098 17.1115 13.7415C17.1678 13.7733 17.2313 13.7899 17.296 13.7899C17.3127 13.79 17.3295 13.7886 17.346 13.7859L20.6555 13.3199C20.8771 13.2885 21.084 13.1911 21.2493 13.0402C21.4146 12.8894 21.5306 12.6922 21.582 12.4744C21.637 12.2658 21.6578 12.0496 21.6435 11.8344C21.5675 10.9764 21.1175 10.7999 20.781 10.8204ZM20.8555 12.2949C20.8389 12.3665 20.8012 12.4316 20.7473 12.4816C20.6934 12.5316 20.6257 12.5643 20.553 12.5754L17.9825 12.9374C18.2024 12.5218 18.4539 12.1238 18.735 11.7469C19 11.7004 19.9625 11.6229 20.817 11.5699C20.8715 11.6714 20.8995 11.7851 20.8985 11.9004C20.9049 12.0333 20.8904 12.1664 20.8555 12.2949Z" fill="#0F1015"/>
<path d="M17.1305 11.389C17.0927 11.335 17.0414 11.2919 16.9817 11.264C16.9221 11.2361 16.8561 11.2244 16.7905 11.23C16.756 11.233 13.3115 11.53 11.9405 11.53C10.5695 11.53 7.12448 11.23 7.09048 11.23C7.02482 11.2242 6.95879 11.2358 6.89908 11.2637C6.83936 11.2916 6.78806 11.3348 6.75037 11.3889C6.71268 11.443 6.68993 11.506 6.68442 11.5717C6.67891 11.6374 6.69083 11.7034 6.71898 11.763L7.70648 13.8585C7.73536 13.9194 7.78005 13.9714 7.8359 14.0091C7.89175 14.0469 7.9567 14.0689 8.02398 14.073L11.9385 14.297L15.859 14.073C15.9263 14.069 15.9913 14.047 16.0471 14.0093C16.103 13.9715 16.1477 13.9194 16.1765 13.8585L17.164 11.763C17.1919 11.7032 17.2035 11.6371 17.1976 11.5714C17.1918 11.5058 17.1686 11.4428 17.1305 11.389ZM15.5915 13.339L11.9395 13.55L8.28948 13.339L7.67398 12.033C8.75348 12.121 10.8935 12.283 11.941 12.283C12.9885 12.283 15.129 12.121 16.209 12.033L15.5915 13.339Z" fill="#0F1015"/>
<path d="M22.845 18.6856C22.7455 18.6856 22.6501 18.7251 22.5798 18.7954C22.5095 18.8657 22.47 18.9611 22.47 19.0606V20.6176C22.47 20.6527 22.456 20.6864 22.4312 20.7112C22.4063 20.7361 22.3726 20.7501 22.3375 20.7501H20.3895C20.3543 20.7501 20.3206 20.7361 20.2958 20.7112C20.2709 20.6864 20.257 20.6527 20.257 20.6176V19.9756C20.257 19.8761 20.2174 19.7807 20.1471 19.7104C20.0768 19.6401 19.9814 19.6006 19.882 19.6006C19.7825 19.6006 19.6871 19.6401 19.6168 19.7104C19.5465 19.7807 19.507 19.8761 19.507 19.9756V20.6176C19.5072 20.8515 19.6003 21.0758 19.7657 21.2413C19.9312 21.4067 20.1555 21.4998 20.3895 21.5001H22.3395C22.5734 21.4998 22.7977 21.4067 22.9632 21.2413C23.1286 21.0758 23.2217 20.8515 23.222 20.6176V19.0606C23.222 19.0111 23.2122 18.9622 23.1932 18.9166C23.1743 18.871 23.1465 18.8295 23.1114 18.7947C23.0764 18.7598 23.0348 18.7322 22.9891 18.7135C22.9434 18.6948 22.8944 18.6853 22.845 18.6856Z" fill="#0F1015"/>
<path d="M3.97047 19.6C3.87101 19.6 3.77563 19.6396 3.7053 19.7099C3.63498 19.7802 3.59547 19.8756 3.59547 19.975V20.617C3.59547 20.6521 3.58158 20.6857 3.55684 20.7106C3.5321 20.7354 3.49852 20.7494 3.46347 20.7495H1.51347C1.47842 20.7494 1.44484 20.7354 1.4201 20.7106C1.39536 20.6857 1.38147 20.6521 1.38147 20.617V19.0605C1.38147 18.9611 1.34196 18.8657 1.27163 18.7954C1.20131 18.7251 1.10593 18.6855 1.00647 18.6855C0.907014 18.6855 0.811631 18.7251 0.741305 18.7954C0.670979 18.8657 0.63147 18.9611 0.63147 19.0605V20.6175C0.631601 20.8513 0.724415 21.0755 0.889563 21.2409C1.05471 21.4063 1.27872 21.4995 1.51247 21.5H3.46247C3.6964 21.4998 3.92066 21.4067 4.08602 21.2412C4.25139 21.0758 4.34434 20.8515 4.34447 20.6175V19.9755C4.3446 19.8762 4.30529 19.7808 4.23517 19.7104C4.16504 19.64 4.06984 19.6003 3.97047 19.6Z" fill="#0F1015"/>
<path d="M23.154 6.92739L21.904 6.71139C21.7214 6.67769 21.5327 6.70722 21.3691 6.79511C21.2055 6.883 21.0767 7.024 21.004 7.19489L20.9365 7.34489L20.0505 5.25489C19.8502 4.77567 19.5306 4.35571 19.122 4.03503C18.7134 3.71434 18.2296 3.5036 17.7165 3.42289C15.8047 3.13265 13.8732 2.99123 11.9395 2.99989C10.0058 2.99139 8.0743 3.13298 6.16249 3.42339C5.64946 3.50405 5.16563 3.71472 4.75708 4.03531C4.34852 4.35591 4.02884 4.77576 3.82849 5.25489L2.93949 7.34689L2.87649 7.19989C2.80433 7.02827 2.67588 6.88634 2.5123 6.79746C2.34871 6.70858 2.15974 6.67805 1.97649 6.71089L0.726488 6.92739C0.523634 6.96103 0.33931 7.06559 0.206353 7.22244C0.0733963 7.3793 0.000442351 7.57826 0.000488303 7.78389V8.02939C0.000675568 8.22732 0.0681995 8.41931 0.191961 8.57378C0.315723 8.72826 0.488357 8.83603 0.681488 8.87939L1.86849 9.14739L1.34249 9.94989C0.886719 10.6433 0.64422 11.4551 0.644988 12.2849V16.5499C0.644988 18.1594 1.76599 19.1999 3.50199 19.1999H20.377C22.113 19.1999 23.234 18.1599 23.234 16.5499V12.2829C23.2348 11.4531 22.9923 10.6413 22.5365 9.94789L22.0105 9.14789L23.1935 8.88089C23.3872 8.83805 23.5605 8.73053 23.6849 8.57603C23.8093 8.42153 23.8774 8.22926 23.878 8.03089V7.78539C23.8786 7.57977 23.8061 7.38063 23.6735 7.22348C23.5409 7.06634 23.3568 6.9614 23.154 6.92739ZM0.842988 8.14539C0.816669 8.13947 0.793157 8.12475 0.776338 8.10365C0.759519 8.08256 0.7504 8.05636 0.750488 8.02939V7.78389C0.750082 7.75556 0.76001 7.72806 0.778416 7.70652C0.796822 7.68499 0.822444 7.6709 0.850488 7.66689L2.10599 7.44989C2.1236 7.44672 2.14176 7.45003 2.15711 7.45923C2.17247 7.46842 2.18397 7.48287 2.18949 7.49989L2.49599 8.19289L2.30899 8.47789L0.842988 8.14539ZM22.484 15.3849H2.34549C2.24603 15.3849 2.15065 15.4244 2.08032 15.4947C2.01 15.565 1.97049 15.6604 1.97049 15.7599C1.97049 15.8593 2.01 15.9547 2.08032 16.0251C2.15065 16.0954 2.24603 16.1349 2.34549 16.1349H22.484V16.5499C22.484 17.7389 21.6965 18.4499 20.377 18.4499H3.50199C2.18249 18.4499 1.39499 17.7394 1.39499 16.5499V12.2829C1.39446 11.5992 1.59418 10.9303 1.96949 10.3589L3.15149 8.55589H19.512C19.6114 8.55589 19.7068 8.51638 19.7772 8.44605C19.8475 8.37573 19.887 8.28034 19.887 8.18089C19.887 8.08143 19.8475 7.98605 19.7772 7.91572C19.7068 7.8454 19.6114 7.80589 19.512 7.80589H3.56099L4.51899 5.54989C4.66977 5.18793 4.91081 4.87065 5.2191 4.62836C5.52739 4.38607 5.89265 4.22684 6.27999 4.16589C8.15284 3.88061 10.0451 3.74152 11.9395 3.74989C13.8339 3.74102 15.7261 3.87961 17.599 4.16439C17.9865 4.22549 18.3519 4.38494 18.6602 4.6275C18.9685 4.87007 19.2094 5.18764 19.36 5.54989L20.456 8.13339C20.4645 8.15406 20.475 8.17382 20.4875 8.19239L21.9095 10.3609C22.2848 10.9323 22.4845 11.6012 22.484 12.2849V15.3849ZM23.128 8.02939C23.128 8.0569 23.1185 8.08357 23.1011 8.10489C23.0837 8.1262 23.0594 8.14086 23.0325 8.14639L21.5715 8.47639L21.3845 8.19139L21.693 7.49139C21.6999 7.47623 21.7117 7.46379 21.7264 7.45601C21.7412 7.44823 21.7581 7.44555 21.7745 7.44839L23.0275 7.66539C23.0555 7.6694 23.0812 7.68349 23.0996 7.70502C23.118 7.72656 23.1279 7.75406 23.1275 7.78239L23.128 8.02939Z" fill="#0F1015"/>
</svg>
