<svg width="18" height="18" viewBox="0 0 18 18" fill="none" xmlns="http://www.w3.org/2000/svg">
<path fill-rule="evenodd" clip-rule="evenodd" d="M9.5625 4.5C9.5625 4.18934 9.31066 3.9375 9 3.9375C8.68934 3.9375 8.4375 4.18934 8.4375 4.5V8.4375H4.5C4.18934 8.4375 3.9375 8.68934 3.9375 9C3.9375 9.31066 4.18934 9.5625 4.5 9.5625H8.4375V13.5C8.4375 13.8107 8.68934 14.0625 9 14.0625C9.31066 14.0625 9.5625 13.8107 9.5625 13.5V9.5625H13.5C13.8107 9.5625 14.0625 9.31066 14.0625 9C14.0625 8.68934 13.8107 8.4375 13.5 8.4375H9.5625V4.5Z" fill="#0F1015"/>
</svg>
