<svg width="18" height="18" viewBox="0 0 18 18" fill="none" xmlns="http://www.w3.org/2000/svg">
<g clip-path="url(#clip0_6302_294)">
<path d="M6.47338 7.82581C6.04242 6.96555 5.15267 6.375 4.125 6.375C2.67525 6.375 1.5 7.55025 1.5 9C1.5 10.4497 2.67525 11.625 4.125 11.625C5.15267 11.625 6.04242 11.0344 6.47338 10.1742M6.47338 7.82581C6.65039 8.17912 6.75 8.57793 6.75 9C6.75 9.42207 6.65039 9.82088 6.47338 10.1742M6.47338 7.82581L11.5266 5.29919M6.47338 10.1742L11.5266 12.7008M11.5266 5.29919C11.9576 6.15945 12.8473 6.75 13.875 6.75C15.3247 6.75 16.5 5.57475 16.5 4.125C16.5 2.67525 15.3247 1.5 13.875 1.5C12.4253 1.5 11.25 2.67525 11.25 4.125C11.25 4.54707 11.3496 4.94588 11.5266 5.29919ZM11.5266 12.7008C11.3496 13.0541 11.25 13.4529 11.25 13.875C11.25 15.3247 12.4253 16.5 13.875 16.5C15.3247 16.5 16.5 15.3247 16.5 13.875C16.5 12.4253 15.3247 11.25 13.875 11.25C12.8473 11.25 11.9576 11.8406 11.5266 12.7008Z" stroke="#0F1015" stroke-width="1.5" stroke-linecap="round"/>
</g>
<defs>
<clipPath id="clip0_6302_294">
<rect width="18" height="18" fill="white"/>
</clipPath>
</defs>
</svg>
