<svg aria-hidden="true" style="position: absolute; width: 0; height: 0; overflow: hidden;" version="1.1" xmlns="http://www.w3.org/2000/svg" xmlns:xlink="http://www.w3.org/1999/xlink">
    <defs>

        <symbol id="icon-coin-dollar" viewBox="0 0 33 32">
            <path stroke-linejoin="miter" stroke-linecap="butt" stroke-miterlimit="4" stroke-width="2" d="M30 16c0 7.364-5.97 13.333-13.333 13.333s-13.333-5.97-13.333-13.333c0-7.364 5.97-13.333 13.333-13.333s13.333 5.97 13.333 13.333z"></path>
            <path stroke-linejoin="miter" stroke-linecap="round" stroke-miterlimit="4" stroke-width="2" d="M19.333 13.333c0-1.473-1.194-2.667-2.667-2.667s-2.667 1.194-2.667 2.667c0 1.473 1.194 2.667 2.667 2.667"></path>
            <path stroke-linejoin="miter" stroke-linecap="round" stroke-miterlimit="4" stroke-width="2" d="M16.667 16c1.473 0 2.667 1.194 2.667 2.667s-1.194 2.667-2.667 2.667c-1.473 0-2.667-1.194-2.667-2.667"></path>
            <path stroke-linejoin="round" stroke-linecap="round" stroke-miterlimit="4" stroke-width="2" d="M16.667 8.667v2"></path>
            <path stroke-linejoin="round" stroke-linecap="round" stroke-miterlimit="4" stroke-width="2" d="M16.667 21.333v2"></path>
        </symbol>

        <symbol id="icon-feedback-star" viewBox="0 0 32 32">
            <path d="M13.377 4.362c1.073-2.26 4.173-2.26 5.246 0l1.854 3.906c0.426 0.898 1.25 1.52 2.202 1.664l4.146 0.626c2.399 0.362 3.357 3.428 1.621 5.187l-3 3.041c-0.689 0.699-1.004 1.705-0.841 2.692l0.708 4.293c0.41 2.484-2.098 4.379-4.244 3.206l-3.709-2.027c-0.852-0.466-1.87-0.466-2.722 0l-3.709 2.027c-2.146 1.173-4.654-0.721-4.244-3.206l0.708-4.294c0.163-0.987-0.152-1.993-0.841-2.692l-3-3.041c-1.736-1.759-0.778-4.825 1.621-5.187l4.146-0.626c0.953-0.144 1.776-0.766 2.202-1.664l1.854-3.906z"></path>
        </symbol>

        <symbol id="icon-heart" viewBox="0 0 32 32">
            <path stroke-linejoin="round" stroke-linecap="butt" stroke-miterlimit="4" stroke-width="2.4" d="M17.020 6.27l-1.020 1.096-1.020-1.096c-2.817-3.026-7.384-3.026-10.201 0s-2.817 7.933-0 10.959l9.181 9.863c1.127 1.21 2.953 1.21 4.080 0l9.181-9.863c2.817-3.026 2.817-7.933 0-10.959s-7.384-3.026-10.201 0z"></path>
        </symbol>

        <symbol id="icon-home" viewBox="0 0 32 32">
            <path stroke-linejoin="round" stroke-linecap="butt" stroke-miterlimit="4" stroke-width="2" d="M28 23.956v-10.422c0-1.615-0.719-3.144-1.96-4.165l-6.667-5.49c-1.963-1.617-4.784-1.617-6.747 0l-6.667 5.49c-1.24 1.021-1.96 2.55-1.96 4.165v10.422c0 2.97 2.388 5.378 5.333 5.378h13.333c2.945 0 5.333-2.408 5.333-5.378z"></path>
            <path stroke-linejoin="miter" stroke-linecap="round" stroke-miterlimit="4" stroke-width="2" d="M13.333 24h5.333"></path>
        </symbol>

        <symbol id="icon-home-setting" viewBox="0 0 32 32">
            <path stroke-linejoin="round" stroke-linecap="round" stroke-miterlimit="4" stroke-width="2" d="M28 23.956v-10.422c0-1.615-0.719-3.144-1.96-4.165l-6.667-5.49c-1.963-1.617-4.784-1.617-6.747 0l-6.667 5.49c-1.24 1.021-1.96 2.55-1.96 4.165v10.422c0 2.97 2.388 5.378 5.333 5.378h13.333c2.945 0 5.333-2.408 5.333-5.378z"></path>
            <path stroke-linejoin="round" stroke-linecap="round" stroke-miterlimit="4" stroke-width="2" d="M16.566 13.333h-1.131c-0.625 0-1.131 0.478-1.131 1.067 0 0.674-0.721 1.103-1.313 0.78l-0.060-0.033c-0.541-0.295-1.233-0.12-1.545 0.39l-0.566 0.924c-0.312 0.51-0.127 1.163 0.414 1.457 0.592 0.323 0.592 1.173 0 1.495-0.541 0.295-0.726 0.947-0.414 1.457l0.566 0.924c0.312 0.51 1.004 0.685 1.545 0.39l0.060-0.033c0.592-0.322 1.313 0.106 1.313 0.78 0 0.589 0.506 1.067 1.131 1.067h1.131c0.625 0 1.131-0.478 1.131-1.067 0-0.674 0.721-1.103 1.313-0.78l0.060 0.033c0.541 0.295 1.233 0.12 1.545-0.39l0.566-0.924c0.312-0.51 0.127-1.163-0.414-1.457-0.592-0.323-0.592-1.173 0-1.495 0.541-0.295 0.727-0.947 0.414-1.457l-0.566-0.924c-0.312-0.51-1.004-0.685-1.545-0.39l-0.060 0.033c-0.592 0.322-1.313-0.106-1.313-0.78 0-0.589-0.507-1.067-1.131-1.067z"></path>
            <path d="M17 18.667c0 0.552-0.448 1-1 1s-1-0.448-1-1c0-0.552 0.448-1 1-1s1 0.448 1 1z"></path>
        </symbol>

        <symbol id="icon-location" viewBox="0 0 32 32">
            <path stroke-linejoin="miter" stroke-linecap="butt" stroke-miterlimit="4" stroke-width="2" d="M20 14.667c0 2.209-1.791 4-4 4s-4-1.791-4-4c0-2.209 1.791-4 4-4s4 1.791 4 4z"></path>
            <path stroke-linejoin="miter" stroke-linecap="butt" stroke-miterlimit="4" stroke-width="2" d="M28 14.519c0 6.546-7.5 14.815-12 14.815s-12-8.269-12-14.815c0-6.546 5.373-11.852 12-11.852s12 5.306 12 11.852z"></path>
        </symbol>

        <symbol id="icon-medal" viewBox="0 0 32 32">
            <path stroke-linejoin="round" stroke-linecap="round" stroke-miterlimit="4" stroke-width="2" d="M22.667 10v-4.667c0-1.473-1.194-2.667-2.667-2.667h-8c-1.473 0-2.667 1.194-2.667 2.667v4.667M26.667 18.667c0 5.891-4.776 10.667-10.667 10.667s-10.667-4.776-10.667-10.667c0-5.891 4.776-10.667 10.667-10.667s10.667 4.776 10.667 10.667zM13.328 16.239l-1.659 0.251c-0.96 0.145-1.343 1.371-0.648 2.075l1.2 1.216c0.276 0.279 0.402 0.682 0.336 1.077l-0.283 1.717c-0.164 0.994 0.839 1.752 1.698 1.282l1.483-0.811c0.341-0.186 0.748-0.186 1.089 0l1.483 0.811c0.858 0.469 1.861-0.289 1.698-1.282l-0.283-1.717c-0.065-0.395 0.061-0.797 0.337-1.077l1.2-1.216c0.694-0.704 0.311-1.93-0.649-2.075l-1.659-0.251c-0.381-0.058-0.71-0.307-0.881-0.665l-0.742-1.563c-0.429-0.904-1.669-0.904-2.098 0l-0.742 1.563c-0.17 0.359-0.5 0.608-0.881 0.665z"></path>
        </symbol>

        <symbol id="icon-plus" viewBox="0 0 32 32">
            <path d="M17 8c0-0.552-0.448-1-1-1s-1 0.448-1 1v7h-7c-0.552 0-1 0.448-1 1s0.448 1 1 1h7v7c0 0.552 0.448 1 1 1s1-0.448 1-1v-7h7c0.552 0 1-0.448 1-1s-0.448-1-1-1h-7v-7z"></path>
        </symbol>

        <symbol id="icon-search" viewBox="0 0 32 32">
            <path d="M15.333 29c-7.533 0-13.667-6.133-13.667-13.667s6.133-13.667 13.667-13.667c7.533 0 13.667 6.133 13.667 13.667s-6.133 13.667-13.667 13.667zM15.333 3.667c-6.44 0-11.667 5.24-11.667 11.667s5.227 11.667 11.667 11.667c6.44 0 11.667-5.24 11.667-11.667s-5.227-11.667-11.667-11.667z"></path>
            <path d="M29.333 30.333c-0.253 0-0.507-0.093-0.707-0.293l-2.667-2.667c-0.387-0.387-0.387-1.027 0-1.413s1.027-0.387 1.413 0l2.667 2.667c0.387 0.387 0.387 1.027 0 1.413-0.2 0.2-0.453 0.293-0.707 0.293z"></path>
        </symbol>

        <symbol id="icon-share" viewBox="0 0 32 32">
            <path stroke-linejoin="miter" stroke-linecap="round" stroke-miterlimit="4" stroke-width="2.6667" d="M11.508 13.913c-0.766-1.529-2.348-2.579-4.175-2.579-2.577 0-4.667 2.089-4.667 4.667s2.089 4.667 4.667 4.667c1.827 0 3.409-1.050 4.175-2.579M11.508 13.913c0.315 0.628 0.492 1.337 0.492 2.087s-0.177 1.459-0.492 2.087M11.508 13.913l8.983-4.492M11.508 18.087l8.983 4.492M20.492 9.421c0.766 1.529 2.348 2.579 4.175 2.579 2.577 0 4.667-2.089 4.667-4.667s-2.089-4.667-4.667-4.667c-2.577 0-4.667 2.089-4.667 4.667 0 0.75 0.177 1.459 0.492 2.087zM20.492 22.579c-0.315 0.628-0.492 1.337-0.492 2.087 0 2.577 2.089 4.667 4.667 4.667s4.667-2.089 4.667-4.667c0-2.577-2.089-4.667-4.667-4.667-1.827 0-3.409 1.050-4.175 2.579z"></path>
        </symbol>

        <symbol id="icon-arrow" viewBox="0 0 32 32">
            <path d="M7.293 16.707c-0.391-0.391-0.391-1.024 0-1.414l5.333-5.333c0.391-0.391 1.024-0.391 1.414 0s0.391 1.024 0 1.414l-3.626 3.626h13.586c0.552 0 1 0.448 1 1s-0.448 1-1 1h-13.586l3.626 3.626c0.391 0.391 0.391 1.024 0 1.414s-1.024 0.391-1.414 0l-5.333-5.333z"></path>
        </symbol>

        <symbol id="icon-badge-percent" viewBox="0 0 32 32">
            <path d="M13.333 12c0 0.736-0.597 1.333-1.333 1.333s-1.333-0.597-1.333-1.333c0-0.736 0.597-1.333 1.333-1.333s1.333 0.597 1.333 1.333z"></path>
            <path d="M21.333 20c0 0.736-0.597 1.333-1.333 1.333s-1.333-0.597-1.333-1.333c0-0.736 0.597-1.333 1.333-1.333s1.333 0.597 1.333 1.333z"></path>
            <path stroke-linejoin="miter" stroke-linecap="butt" stroke-miterlimit="4" stroke-width="2" d="M13.406 3.544c1.495-1.274 3.694-1.274 5.189 0l0.91 0.776c0.641 0.546 1.437 0.876 2.276 0.943l1.192 0.095c1.958 0.156 3.513 1.711 3.669 3.669l0.095 1.192c0.067 0.839 0.397 1.636 0.943 2.276l0.776 0.91c1.274 1.495 1.274 3.694 0 5.189l-0.776 0.91c-0.546 0.641-0.876 1.437-0.943 2.276l-0.095 1.192c-0.156 1.958-1.711 3.513-3.669 3.669l-1.192 0.095c-0.839 0.067-1.636 0.397-2.276 0.943l-0.91 0.776c-1.495 1.274-3.694 1.274-5.189 0l-0.91-0.776c-0.641-0.546-1.437-0.876-2.276-0.943l-1.192-0.095c-1.958-0.156-3.513-1.711-3.669-3.669l-0.095-1.192c-0.067-0.839-0.397-1.636-0.943-2.276l-0.776-0.91c-1.274-1.495-1.274-3.694 0-5.189l0.776-0.91c0.546-0.641 0.876-1.437 0.943-2.276l0.095-1.192c0.156-1.958 1.711-3.513 3.669-3.669l1.192-0.095c0.839-0.067 1.636-0.397 2.276-0.943l0.91-0.776z"></path>
            <path stroke-linejoin="miter" stroke-linecap="round" stroke-miterlimit="4" stroke-width="2" d="M12 20l8-8"></path>
        </symbol>

        <symbol id="icon-bath" viewBox="0 0 32 32">
            <path d="M30.4 17.066h-0.533v-11.2c0-2.667-2.133-4.8-4.8-4.8-2.361 0-4.058 1.75-4.248 4.315-1.239 0.234-2.152 1.302-2.152 2.618 0 0.32 0.213 0.533 0.533 0.533h4.267c0.32 0 0.533-0.213 0.533-0.533 0-1.302-0.892-2.361-2.11-2.61 0.159-1.695 1.177-3.256 3.177-3.256 2.080 0 3.733 1.653 3.733 3.733v11.2h-16.052c-0.241-1.23-1.305-2.133-2.615-2.133-0.533-0.64-1.28-1.067-2.133-1.067-1.013 0-1.92 0.587-2.347 1.44-0.427-0.213-0.907-0.373-1.387-0.373-1.31 0-2.374 0.903-2.615 2.133h-0.052c-0.907 0-1.6 0.693-1.6 1.6s0.693 1.6 1.6 1.6h0.641l1.439 5.707c0.427 1.653 1.92 2.827 3.627 2.827h0.427l-0.693 1.387c-0.16 0.267-0.053 0.587 0.213 0.693 0.053 0.053 0.16 0.053 0.213 0.053 0.213 0 0.373-0.107 0.48-0.267l0.933-1.867h14.8l0.907 1.813c0.107 0.213 0.267 0.32 0.48 0.32 0.107 0 0.16 0 0.213-0.107 0.213-0.107 0.32-0.427 0.213-0.693l-0.668-1.336c1.651-0.059 3.079-1.212 3.495-2.77l1.453-5.76h0.627c0.907 0 1.6-0.693 1.6-1.6s-0.693-1.6-1.6-1.6zM22.88 7.466h-3.040c0.213-0.64 0.853-1.067 1.547-1.067s1.28 0.427 1.493 1.067zM4.267 16c0.48 0 0.907 0.213 1.28 0.587 0.107 0.16 0.32 0.213 0.533 0.16s0.32-0.213 0.373-0.427c0.16-0.8 0.8-1.387 1.6-1.387 0.587 0 1.12 0.267 1.387 0.8 0.107 0.213 0.373 0.32 0.587 0.267 0.053 0 0.107 0 0.16 0 0.693 0 1.28 0.427 1.493 1.067h-8.907c0.213-0.64 0.8-1.067 1.493-1.067zM27.36 25.706c-0.32 1.173-1.387 2.027-2.613 2.027h-17.387c-1.227 0-2.293-0.853-2.613-2.027l-1.387-5.44h25.28l-1.28 5.44zM30.4 19.2h-28.8c-0.32 0-0.533-0.213-0.533-0.533s0.213-0.533 0.533-0.533h28.8c0.32 0 0.533 0.213 0.533 0.533s-0.213 0.533-0.533 0.533z"></path>
            <path d="M19.2 10.933c0.32 0 0.533-0.213 0.533-0.533v-0.267c0-0.32-0.213-0.533-0.533-0.533s-0.533 0.213-0.533 0.533v0.267c0 0.32 0.213 0.533 0.533 0.533z"></path>
            <path d="M19.2 13.386c0.32 0 0.533-0.267 0.533-0.533v-0.587c0-0.32-0.213-0.533-0.533-0.533s-0.533 0.213-0.533 0.533v0.587c0 0.32 0.213 0.533 0.533 0.533z"></path>
            <path d="M19.2 15.466c0.32 0 0.533-0.213 0.533-0.533v-0.267c0-0.32-0.213-0.533-0.533-0.533s-0.533 0.213-0.533 0.533v0.267c0 0.32 0.213 0.533 0.533 0.533z"></path>
            <path d="M21.333 10.933c0.32 0 0.533-0.213 0.533-0.533v-0.267c0-0.32-0.213-0.533-0.533-0.533s-0.533 0.213-0.533 0.533v0.267c0 0.32 0.213 0.533 0.533 0.533z"></path>
            <path d="M20.8 12.853c0 0.32 0.213 0.533 0.533 0.533s0.533-0.267 0.533-0.533v-0.587c0-0.32-0.213-0.533-0.533-0.533s-0.533 0.213-0.533 0.533v0.587z"></path>
            <path d="M20.8 14.933c0 0.32 0.213 0.533 0.533 0.533s0.533-0.213 0.533-0.533v-0.267c0-0.32-0.213-0.533-0.533-0.533s-0.533 0.213-0.533 0.533v0.267z"></path>
            <path d="M23.467 10.933c0.32 0 0.533-0.213 0.533-0.533v-0.267c0-0.32-0.213-0.533-0.533-0.533s-0.533 0.213-0.533 0.533v0.267c-0 0.32 0.213 0.533 0.533 0.533z"></path>
            <path d="M22.933 12.853c0 0.32 0.213 0.533 0.533 0.533s0.533-0.267 0.533-0.533v-0.587c0-0.32-0.213-0.533-0.533-0.533s-0.533 0.213-0.533 0.533v0.587z"></path>
            <path d="M22.933 14.933c0 0.32 0.213 0.533 0.533 0.533s0.533-0.213 0.533-0.533v-0.267c0-0.32-0.213-0.533-0.533-0.533s-0.533 0.213-0.533 0.533v0.267z"></path>
        </symbol>

        <symbol id="icon-bed" viewBox="0 0 32 32">
            <path d="M30.667 16.333v-2.667c0-2.027-1.307-3.333-3.333-3.333h-15.333c-2.027 0-3.333 1.307-3.333 3.333v2.646l-7.333 0.014v-11.307c0-0.333-0.24-0.633-0.567-0.68-0.413-0.060-0.767 0.26-0.767 0.66v21.98c0 0.333 0.24 0.633 0.567 0.68 0.413 0.060 0.767-0.26 0.767-0.66v-4h29.333v3.98c0 0.333 0.24 0.633 0.567 0.68 0.413 0.060 0.767-0.26 0.767-0.66v-9.333c0-0.907-0.427-1.327-1.333-1.333zM10 13.667c0-1.74 1.253-2 2-2h15.333c0.747 0 2 0.26 2 2v2.667h-19.333v-2.667zM30.667 21.667h-29.333v-4h29.333v4z"></path>
            <path d="M5.031 8.906c-2.045 0-3.703 1.658-3.703 3.703s1.658 3.703 3.703 3.703c2.045 0 3.703-1.658 3.703-3.703s-1.658-3.703-3.703-3.703zM5.031 15.125c-1.389 0-2.516-1.126-2.516-2.516s1.126-2.516 2.516-2.516c1.389 0 2.516 1.126 2.516 2.516s-1.126 2.516-2.516 2.516z"></path>
        </symbol>

        <symbol id="icon-car" viewBox="0 0 32 32">
            <path d="M7.214 14.72c-1.022-0.15-2.052-0.248-3.084-0.293-0.453-0.028-1.049 0.208-1.153 1.349-0.019 0.287 0.008 0.575 0.082 0.853 0.069 0.29 0.223 0.553 0.444 0.754s0.496 0.331 0.792 0.373l4.413 0.621c0.022 0.004 0.044 0.005 0.067 0.005 0.086 0 0.171-0.022 0.246-0.065s0.138-0.103 0.182-0.177c0.045-0.074 0.069-0.158 0.072-0.244s-0.017-0.171-0.058-0.248c-1.451-2.761-1.823-2.875-2.003-2.931zM4.434 16.767c-0.097-0.015-0.187-0.058-0.259-0.125s-0.122-0.153-0.144-0.249c-0.046-0.171-0.066-0.349-0.057-0.526 0.002-0.152 0.036-0.301 0.101-0.439h0.014c1.14 0.071 2.422 0.175 2.769 0.236 0.375 0.502 0.711 1.033 1.004 1.587l-3.427-0.485z"></path>
            <path d="M27.708 14.427c-1.032 0.045-2.062 0.142-3.084 0.293-0.179 0.055-0.552 0.17-2.005 2.933-0.040 0.076-0.060 0.162-0.058 0.248s0.027 0.17 0.072 0.244c0.045 0.074 0.107 0.135 0.183 0.177s0.16 0.065 0.246 0.065c0.022 0 0.045-0.002 0.067-0.005l4.413-0.621c0.295-0.042 0.571-0.172 0.792-0.373s0.375-0.464 0.444-0.754c0.073-0.278 0.101-0.566 0.082-0.853-0.101-1.144-0.701-1.379-1.15-1.352zM27.807 16.393c-0.022 0.095-0.072 0.182-0.144 0.249s-0.162 0.11-0.259 0.125l-3.427 0.483c0.293-0.554 0.629-1.085 1.003-1.587 0.353-0.062 1.637-0.165 2.776-0.236 0.073 0.135 0.11 0.287 0.109 0.441 0.009 0.177-0.011 0.355-0.057 0.526z"></path>
            <path d="M22.841 15.185c-0.050-0.072-0.119-0.129-0.198-0.167s-0.167-0.053-0.255-0.045c-0.046 0.004-4.639 0.4-6.467 0.4s-6.421-0.4-6.467-0.4c-0.088-0.008-0.176 0.008-0.255 0.045s-0.148 0.095-0.198 0.167c-0.050 0.072-0.081 0.156-0.088 0.244s0.009 0.176 0.046 0.255l1.317 2.794c0.039 0.081 0.098 0.151 0.173 0.201s0.161 0.080 0.251 0.085l5.219 0.299 5.227-0.299c0.090-0.005 0.176-0.035 0.251-0.085s0.134-0.12 0.173-0.201l1.317-2.794c0.037-0.080 0.053-0.168 0.045-0.255s-0.039-0.171-0.089-0.243zM20.789 17.785l-4.869 0.281-4.867-0.281-0.821-1.741c1.439 0.117 4.293 0.333 5.689 0.333s4.251-0.216 5.691-0.333l-0.823 1.741z"></path>
            <path d="M30.46 24.914c-0.133 0-0.26 0.053-0.354 0.146s-0.146 0.221-0.146 0.354v2.076c0 0.047-0.019 0.092-0.052 0.125s-0.078 0.052-0.125 0.052h-2.597c-0.047 0-0.092-0.019-0.125-0.052s-0.052-0.078-0.052-0.125v-0.856c0-0.133-0.053-0.26-0.147-0.354s-0.221-0.146-0.353-0.146c-0.133 0-0.26 0.053-0.354 0.146s-0.146 0.221-0.146 0.354v0.856c0 0.312 0.124 0.611 0.345 0.832s0.52 0.345 0.832 0.345h2.6c0.312-0 0.611-0.125 0.832-0.345s0.345-0.52 0.345-0.832v-2.076c0-0.066-0.013-0.131-0.038-0.192s-0.062-0.116-0.109-0.163c-0.047-0.047-0.102-0.083-0.163-0.108s-0.126-0.038-0.192-0.037z"></path>
            <path d="M5.294 26.133c-0.133 0-0.26 0.053-0.354 0.147s-0.146 0.221-0.146 0.353v0.856c0 0.047-0.019 0.092-0.051 0.125s-0.078 0.052-0.125 0.052h-2.6c-0.047-0-0.091-0.019-0.125-0.052s-0.052-0.078-0.052-0.125v-2.075c0-0.133-0.053-0.26-0.146-0.353s-0.221-0.147-0.354-0.147c-0.133 0-0.26 0.053-0.354 0.147s-0.146 0.221-0.146 0.353v2.076c0 0.312 0.124 0.611 0.344 0.831s0.519 0.345 0.831 0.345h2.6c0.312-0 0.611-0.124 0.831-0.345s0.344-0.52 0.345-0.832v-0.856c0-0.132-0.052-0.26-0.146-0.353s-0.22-0.147-0.353-0.147z"></path>
            <path d="M30.872 9.237l-1.667-0.288c-0.243-0.045-0.495-0.006-0.713 0.112s-0.39 0.305-0.487 0.533l-0.090 0.2-1.181-2.787c-0.267-0.639-0.693-1.199-1.238-1.626s-1.19-0.709-1.874-0.816c-2.549-0.387-5.124-0.576-7.703-0.564-2.578-0.011-5.154 0.177-7.703 0.565-0.684 0.108-1.329 0.388-1.874 0.816s-0.971 0.987-1.238 1.626l-1.185 2.789-0.084-0.196c-0.096-0.229-0.267-0.418-0.486-0.537s-0.47-0.159-0.714-0.115l-1.667 0.289c-0.27 0.045-0.516 0.184-0.694 0.393s-0.275 0.474-0.275 0.749v0.327c0 0.264 0.090 0.52 0.255 0.726s0.395 0.35 0.653 0.407l1.583 0.357-0.701 1.070c-0.608 0.925-0.931 2.007-0.93 3.113v5.687c0 2.146 1.495 3.533 3.809 3.533h22.5c2.315 0 3.809-1.387 3.809-3.533v-5.689c0.001-1.106-0.322-2.189-0.93-3.113l-0.701-1.067 1.577-0.356c0.258-0.057 0.489-0.2 0.655-0.406s0.257-0.462 0.257-0.727v-0.327c0.001-0.274-0.096-0.54-0.273-0.749s-0.422-0.349-0.693-0.395zM1.124 10.861c-0.035-0.008-0.066-0.028-0.089-0.056s-0.035-0.063-0.034-0.099v-0.327c-0.001-0.038 0.013-0.074 0.037-0.103s0.059-0.047 0.096-0.053l1.674-0.289c0.023-0.004 0.048 0 0.068 0.012s0.036 0.032 0.043 0.054l0.409 0.924-0.249 0.38-1.955-0.443zM29.979 20.513h-26.851c-0.133 0-0.26 0.053-0.354 0.146s-0.146 0.221-0.146 0.354c0 0.133 0.053 0.26 0.146 0.354s0.221 0.146 0.354 0.146h26.851v0.553c0 1.585-1.050 2.533-2.809 2.533h-22.5c-1.759 0-2.809-0.947-2.809-2.533v-5.689c-0.001-0.912 0.266-1.803 0.766-2.565l1.576-2.404h21.814c0.133 0 0.26-0.053 0.354-0.146s0.146-0.221 0.146-0.354-0.053-0.26-0.146-0.354c-0.094-0.094-0.221-0.146-0.354-0.146h-21.268l1.277-3.008c0.201-0.483 0.522-0.906 0.933-1.229s0.898-0.535 1.415-0.617c2.497-0.38 5.020-0.566 7.546-0.555 2.526-0.012 5.049 0.173 7.546 0.553 0.517 0.081 1.004 0.294 1.415 0.617s0.732 0.747 0.933 1.23l1.461 3.445c0.011 0.028 0.025 0.054 0.042 0.079l1.896 2.891c0.5 0.762 0.767 1.654 0.766 2.565v4.133zM30.837 10.706c0 0.037-0.013 0.072-0.036 0.101s-0.056 0.048-0.091 0.055l-1.948 0.44-0.249-0.38 0.411-0.933c0.009-0.020 0.025-0.037 0.045-0.047s0.042-0.014 0.064-0.010l1.671 0.289c0.037 0.005 0.072 0.024 0.096 0.053s0.038 0.065 0.037 0.103l0.001 0.329z"></path>
        </symbol>

        <symbol id="icon-eye" viewBox="0 0 32 32">
            <path stroke-linejoin="round" stroke-linecap="round" stroke-miterlimit="4" stroke-width="2" d="M16 7c-10 0-14 9-14 9s4 9 14 9c10 0 14-9 14-9s-4-9-14-9z"></path>
            <path stroke-linejoin="round" stroke-linecap="round" stroke-miterlimit="4" stroke-width="2" d="M16 21c2.761 0 5-2.239 5-5s-2.239-5-5-5c-2.761 0-5 2.239-5 5s2.239 5 5 5z"></path>
        </symbol>

        <symbol id="icon-twitter" viewBox="0 0 36 32">
            <path d="M24.572 0c-4.208 0-7.619 3.582-7.619 8 0 0.668 0.078 1.316 0.225 1.936-4.046 0-10.14-0.818-15.229-5.917-0.677-0.678-1.925-0.225-1.878 0.732 0.754 15.374 7.338 19.858 10.729 20.137-2.189 2.163-5.37 3.869-8.57 4.636-0.845 0.202-1.053 1.127-0.227 1.395 2.29 0.745 5.568 1.032 7.332 1.080 12.482 0 22.627-10.506 22.852-23.555 1.639-1.066 2.688-3.38 3.278-5.019 0.144-0.399-0.511-0.864-0.902-0.701-1.224 0.51-2.778 0.63-4.102 0.199-1.397-1.785-3.516-2.924-5.889-2.924z"></path>
        </symbol>

        <symbol id="icon-linkedin" viewBox="0 0 30 32">
            <path d="M6.4 3.2c0 1.767-1.433 3.2-3.2 3.2s-3.2-1.433-3.2-3.2c0-1.767 1.433-3.2 3.2-3.2s3.2 1.433 3.2 3.2zM6.4 10.4v21.6h-6.4v-21.6h6.4zM11.2 10.4h6.4v1.346c1.001-0.354 2.078-0.546 3.2-0.546 5.302 0 9.6 4.298 9.6 9.6v11.2h-6.4v-11.2c0-1.767-1.433-3.2-3.2-3.2s-3.2 1.433-3.2 3.2v11.2h-6.4v-21.6z"></path>
        </symbol>

        <symbol id="icon-fb" viewBox="0 0 21 32">
            <path d="M21.333 0h-5.333c-4.909 0-8.889 3.98-8.889 8.889v3.556h-7.111v7.111h7.111v12.444h7.111v-12.444h7.111v-7.111h-7.111v-3.556c0-0.982 0.796-1.778 1.778-1.778h5.333v-7.111z"></path>
        </symbol>

        <symbol id="icon-arrow-left" viewBox="0 0 32 32">
            <path d="M20.707 4.733c0.39 0.391 0.39 1.024 0 1.414l-8.693 8.693c-0.636 0.636-0.636 1.683 0 2.319l8.693 8.693c0.39 0.391 0.39 1.024 0 1.414s-1.024 0.391-1.414 0l-8.693-8.693c-1.417-1.417-1.417-3.73 0-5.148l8.693-8.693c0.391-0.391 1.024-0.391 1.414 0z"></path>
        </symbol>
    </defs>
</svg>
