<svg width="124" height="50" viewBox="0 0 124 50" fill="none" xmlns="http://www.w3.org/2000/svg">
<path fill-rule="evenodd" clip-rule="evenodd" d="M28.3695 26.0376C28.3985 25.9058 28.4277 25.7729 28.4354 25.643C28.4997 25.2567 28.4764 24.8936 28.4354 24.5433C28.3241 23.8523 27.9674 23.2676 27.4233 22.8635C26.8787 22.4544 26.2178 22.1907 25.5569 22.027C24.8955 21.8573 24.2342 21.7757 23.6143 21.7405C22.8827 21.6936 22.1981 21.699 21.5719 21.7405V34.0513C22.7829 33.0798 23.9359 32.0732 24.9772 31.026C25.6504 30.3413 26.2999 29.6627 26.8673 28.9548C27.1423 28.5977 27.4059 28.241 27.634 27.8838C27.8739 27.492 28.0085 27.2576 28.1781 26.7837C28.2013 26.7013 28.2233 26.6188 28.2453 26.5368C28.2731 26.4328 28.3007 26.3297 28.33 26.2282C28.3415 26.1652 28.3555 26.1015 28.3695 26.0376ZM9.47779 35.8356H19.2375C19.5299 35.6253 19.8223 35.4087 20.1092 35.1861V34.7359H9.47779V35.8356ZM9.47779 37.8365H16.2359C16.8152 37.4853 17.3885 37.1168 17.9504 36.7369H9.47779V37.8365ZM9.47779 39.8379H12.6842C13.3748 39.4981 14.0594 39.1241 14.7381 38.7378H9.47779V39.8379ZM9.8157 41.0984C9.85301 41.0839 9.89052 41.0693 9.92842 41.0548C10.1916 40.9554 10.4548 40.85 10.7184 40.7387H9.47779V41.2245C9.59222 41.1851 9.70306 41.1421 9.8157 41.0984ZM5.72723 42.243C6.18379 42.1663 6.65723 42.0788 7.12565 41.962C7.48871 41.874 7.85132 41.7745 8.21392 41.6578V29.0018C7.74003 29.5865 7.22508 30.277 6.68095 31.0437C5.94388 32.0791 5.18903 33.2964 4.45196 34.6593C3.7263 36.0171 3.02389 37.5674 2.67862 39.2058C2.51488 40.0017 2.47975 40.8733 2.76072 41.4471C2.9012 41.7276 3.08866 41.921 3.36916 42.0669C3.65013 42.2015 4.01866 42.2895 4.42824 42.3127C4.84968 42.336 5.26474 42.3068 5.72723 42.243ZM14.9889 16.3284H8.89488V17.1001H14.9889V16.3284ZM14.9889 14.9473H8.89488V15.719H14.9889V14.9473ZM14.9889 13.5658H8.89488V14.3375H14.9889V13.5658ZM14.9889 12.1847H8.89488V12.9564H14.9889V12.1847ZM14.9889 10.8031H8.89488V11.5749H14.9889V10.8031ZM14.9889 9.42159H8.89488V10.1938H14.9889V9.42159ZM14.9889 8.04005H8.89488V8.81223H14.9889V8.04005ZM14.9889 6.65896H8.89488V7.43068H14.9889V6.65896ZM20.1092 19.8327V18.733H9.47779V19.8327H20.1092ZM20.1092 33.8347V32.7345H9.47779V33.8347H20.1092ZM20.1092 31.8337V30.7336H9.47779V31.8337H20.1092ZM20.1092 29.8323V28.7322H9.47779V29.8323H20.1092ZM20.1092 26.7313H17.9486H9.47779V27.8373H20.1092V26.7313ZM20.1092 25.8359V24.7358H9.47779V25.8359H20.1092ZM20.1092 23.835V22.7349H9.47779V23.835H20.1092ZM9.47779 21.8336H20.1092V20.7339H9.47779V21.8336ZM29.0789 22.9342C29.3599 23.3319 29.5706 23.7999 29.6878 24.2852C29.7868 24.7709 29.8397 25.2804 29.7987 25.7657C29.7946 25.9404 29.7709 26.1065 29.747 26.274C29.7365 26.3479 29.726 26.422 29.717 26.4973C29.7092 26.578 29.6914 26.6563 29.6733 26.7355C29.6639 26.7767 29.6544 26.8182 29.6463 26.8603L29.6057 27.0355L29.5884 27.1294L29.5765 27.17L29.5706 27.1938C29.5686 27.2018 29.5693 27.2014 29.57 27.2012C29.5714 27.2006 29.5724 27.2002 29.5533 27.2576C29.4534 27.6439 29.2021 28.2464 28.9681 28.6565C28.7341 29.1007 28.4586 29.5167 28.1781 29.9322C27.6048 30.745 26.9786 31.529 26.2821 32.2725C24.8663 33.8109 23.2805 35.2677 21.5719 36.6196C21.098 37 20.6068 37.3745 20.1092 37.7312C20.0626 37.7722 20.0097 37.8078 19.9632 37.8365C19.5418 38.1471 19.1089 38.4454 18.6756 38.7378C18.1142 39.1182 17.5463 39.4867 16.9734 39.8379C16.8537 39.9161 16.7308 39.9916 16.6093 40.0662C16.5585 40.0974 16.508 40.1284 16.458 40.1595C16.1191 40.3583 15.7734 40.5517 15.4281 40.7387C14.7203 41.125 14.001 41.4936 13.2694 41.8389C12.5848 42.1609 11.8888 42.4651 11.1864 42.7342C11.1449 42.7494 11.1042 42.7654 11.0636 42.7814C10.9957 42.8082 10.9281 42.8349 10.8584 42.8569C10.8407 42.8637 10.823 42.8706 10.8053 42.8774C10.7471 42.8999 10.6887 42.9224 10.6304 42.9445C9.61827 43.313 8.58838 43.6058 7.54116 43.8165C7.02029 43.9278 6.49394 44.004 5.96121 44.0742C5.42894 44.1326 4.84376 44.1563 4.28183 44.0975C3.70896 44.0505 3.10006 43.91 2.52673 43.5766C1.95341 43.2551 1.47359 42.6991 1.2396 42.102C1.00517 41.5054 0.952712 40.9203 0.975973 40.3821C0.999235 39.8434 1.09319 39.3403 1.21589 38.8669C1.4558 37.9186 1.81886 37.0703 2.21065 36.2803C2.60291 35.4908 3.02982 34.7592 3.46266 34.0805C4.32288 32.7167 5.24147 31.5642 6.07843 30.5753C6.84469 29.6745 7.58176 28.937 8.21392 28.3345V18.6098V5.8252H15.8204V17.9138H21.5719V21.2197C22.1863 21.1139 22.8713 21.0381 23.6198 21.0149C24.2812 20.9971 24.989 21.0149 25.738 21.1321C26.4869 21.2548 27.2946 21.4655 28.0554 21.9627C28.424 22.214 28.798 22.5241 29.0789 22.9342ZM101.435 15.2234L107.456 30.7446C107.703 31.3697 107.983 31.7892 108.295 32.0031C108.608 32.2005 108.896 32.3074 109.159 32.3238V32.8174C108.83 32.7845 108.427 32.768 107.95 32.768C107.473 32.7516 106.996 32.7433 106.519 32.7433C105.877 32.7433 105.277 32.7516 104.717 32.768C104.158 32.768 103.705 32.7845 103.36 32.8174V32.3238C104.199 32.2909 104.734 32.1511 104.964 31.9044C105.194 31.6411 105.145 31.09 104.816 30.2511L103.301 26.2042H97.3343L96.3274 28.8199C96.0642 29.4779 95.9079 30.0372 95.8585 30.4978C95.8092 30.942 95.8503 31.2957 95.9819 31.5589C96.13 31.8221 96.3685 32.0113 96.6975 32.1264C97.043 32.2416 97.4707 32.3074 97.9807 32.3238V32.8174C97.5201 32.7845 97.0348 32.768 96.5248 32.768C96.0313 32.7516 95.5707 32.7433 95.1429 32.7433C94.7317 32.7433 94.378 32.7516 94.0819 32.768C93.8022 32.768 93.539 32.7845 93.2923 32.8174V32.3238C93.6213 32.2416 93.9585 32.0524 94.304 31.7563C94.6494 31.4437 94.962 30.9173 95.2416 30.177L101.04 15.2234H101.238H101.435ZM100.36 18.3445L103.117 25.7107H97.5243L100.36 18.3445ZM36.0242 15.3961C35.4649 15.3797 35.0125 15.3632 34.667 15.3468V15.8403C35.2264 15.8568 35.6459 15.9226 35.9255 16.0377C36.2216 16.1364 36.419 16.3338 36.5177 16.6299C36.6164 16.9096 36.6658 17.3538 36.6658 17.9624V30.2017C36.6658 30.7939 36.6164 31.2381 36.5177 31.5342C36.419 31.8303 36.2216 32.0277 35.9255 32.1264C35.6459 32.2251 35.2264 32.2909 34.667 32.3238V32.8174C35.0125 32.7845 35.4649 32.768 36.0242 32.768C36.5835 32.7516 37.1511 32.7433 37.7269 32.7433C38.7468 32.7433 39.6187 32.7598 40.3425 32.7927C41.0663 32.8091 41.6092 32.8174 41.9711 32.8174C43.2049 32.8174 44.266 32.6117 45.1543 32.2005C46.0426 31.7892 46.7171 31.2299 47.1777 30.5225C47.6548 29.7987 47.8933 28.9679 47.8933 28.0302C47.8933 27.3558 47.7453 26.7142 47.4492 26.1055C47.1531 25.4968 46.6349 24.9704 45.8946 24.5262C45.1708 24.0656 44.159 23.7531 42.8594 23.5886V23.5392C43.7807 23.2595 44.5127 22.8976 45.0556 22.4535C45.6149 21.9928 46.0097 21.4911 46.2401 20.9482C46.4868 20.3889 46.6102 19.8214 46.6102 19.2456C46.6102 18.1105 46.1743 17.181 45.3024 16.4572C44.4305 15.7334 43.1309 15.3715 41.4036 15.3715C41.1075 15.3715 40.6057 15.3797 39.8983 15.3961C39.191 15.4126 38.4507 15.4208 37.6775 15.4208C37.1346 15.4208 36.5835 15.4126 36.0242 15.3961ZM39.3061 16.2598C39.5364 15.9801 40.0299 15.8403 40.7867 15.8403C42.0205 15.8403 42.9006 16.1529 43.427 16.778C43.9699 17.3867 44.2413 18.2997 44.2413 19.517C44.2413 20.2244 44.1426 20.8907 43.9452 21.5158C43.7478 22.1245 43.3859 22.618 42.8594 22.9963C42.333 23.3583 41.5845 23.5392 40.6139 23.5392H38.9607V17.9624C38.9607 17.107 39.0758 16.5395 39.3061 16.2598ZM38.9607 23.9587V30.2017C38.9607 30.7775 39.01 31.2134 39.1087 31.5095C39.2074 31.8056 39.3884 32.0031 39.6516 32.1018C39.9148 32.2005 40.3014 32.2498 40.8113 32.2498C42.4235 32.2498 43.5915 31.8797 44.3153 31.1394C45.0556 30.3827 45.4257 29.3134 45.4257 27.9315C45.4257 26.6648 45.0803 25.686 44.3894 24.9951C43.7149 24.3042 42.5962 23.9587 41.0334 23.9587H38.9607ZM56.165 15.8403V15.3468C55.7866 15.3632 55.3096 15.3797 54.7338 15.3961C54.1745 15.4126 53.6069 15.4208 53.0311 15.4208C52.3896 15.4208 51.7891 15.4126 51.2298 15.3961C50.6705 15.3797 50.2181 15.3632 49.8726 15.3468V15.8403C50.4319 15.8568 50.8514 15.9226 51.1311 16.0377C51.4272 16.1364 51.6246 16.3338 51.7233 16.6299C51.822 16.9096 51.8714 17.3538 51.8714 17.9624V30.2017C51.8714 30.7939 51.822 31.2381 51.7233 31.5342C51.6246 31.8303 51.4272 32.0277 51.1311 32.1264C50.8514 32.2251 50.4319 32.2909 49.8726 32.3238V32.8174C50.2181 32.7845 50.6705 32.768 51.2298 32.768C51.7891 32.7516 52.3896 32.7433 53.0311 32.7433C53.6069 32.7433 54.1745 32.7516 54.7338 32.768C55.3096 32.768 55.7866 32.7845 56.165 32.8174V32.3238C55.6057 32.2909 55.1779 32.2251 54.8818 32.1264C54.6022 32.0277 54.413 31.8303 54.3143 31.5342C54.2156 31.2381 54.1662 30.7939 54.1662 30.2017V17.9624C54.1662 17.3538 54.2156 16.9096 54.3143 16.6299C54.413 16.3338 54.6022 16.1364 54.8818 16.0377C55.1779 15.9226 55.6057 15.8568 56.165 15.8403ZM71.8063 15.3468C71.7405 15.9719 71.6911 16.5806 71.6582 17.1728C71.6417 17.7486 71.6335 18.1928 71.6335 18.5053C71.6335 18.9001 71.6417 19.2703 71.6582 19.6157C71.6747 19.9612 71.6911 20.2655 71.7076 20.5287H71.14C71.0248 19.3772 70.8686 18.4724 70.6712 17.8144C70.4738 17.1399 70.1283 16.6546 69.6348 16.3585C69.1413 16.0624 68.3763 15.9143 67.3399 15.9143H66.0074V29.955C66.0074 30.613 66.065 31.1065 66.1801 31.4355C66.3117 31.7645 66.5585 31.9866 66.9204 32.1018C67.2823 32.2169 67.8088 32.2909 68.4997 32.3238V32.8174C68.072 32.7845 67.5291 32.768 66.8711 32.768C66.213 32.7516 65.5468 32.7433 64.8723 32.7433C64.132 32.7433 63.4329 32.7516 62.7749 32.768C62.1333 32.768 61.6151 32.7845 61.2203 32.8174V32.3238C61.9112 32.2909 62.4376 32.2169 62.7995 32.1018C63.1614 31.9866 63.4 31.7645 63.5151 31.4355C63.6467 31.1065 63.7125 30.613 63.7125 29.955V15.9143H62.38C61.3601 15.9143 60.5951 16.0624 60.0852 16.3585C59.5917 16.6546 59.2462 17.1399 59.0488 17.8144C58.8514 18.4724 58.6951 19.3772 58.5799 20.5287H58.0124C58.0453 20.2655 58.0618 19.9612 58.0618 19.6157C58.0782 19.2703 58.0864 18.9001 58.0864 18.5053C58.0864 18.1928 58.07 17.7486 58.0371 17.1728C58.0206 16.5806 57.9795 15.9719 57.9137 15.3468C58.6046 15.3632 59.3531 15.3797 60.1592 15.3961C60.9817 15.4126 61.8043 15.4208 62.6268 15.4208H64.8723H67.0932C67.9157 15.4208 68.7382 15.4126 69.5607 15.3961C70.3833 15.3797 71.1318 15.3632 71.8063 15.3468ZM94.9052 15.8403V15.3468C94.6585 15.3632 94.3953 15.3797 94.1156 15.3961C93.836 15.4126 93.4823 15.4208 93.0546 15.4208C92.6268 15.4208 92.1662 15.4126 91.6727 15.3961C91.1792 15.3797 90.6939 15.3632 90.2168 15.3468V15.8403C90.9077 15.8568 91.4259 15.9719 91.7714 16.1858C92.1169 16.3832 92.2978 16.7369 92.3143 17.2468C92.3472 17.7404 92.2156 18.4395 91.9195 19.3443L88.8811 28.8969L85.331 17.9131C85.1336 17.2715 85.0513 16.8109 85.0842 16.5312C85.1336 16.2516 85.2981 16.0706 85.5777 15.9884C85.8738 15.9061 86.2687 15.8568 86.7622 15.8403V15.3468C86.4167 15.3632 85.9643 15.3797 85.405 15.3961C84.8457 15.4126 84.2452 15.4208 83.6037 15.4208C83.1924 15.4208 82.7647 15.4126 82.3205 15.3961C81.8764 15.3797 81.5062 15.3632 81.2101 15.3468V15.8403C81.4404 15.8568 81.6872 15.9637 81.9504 16.1611C82.2136 16.3585 82.4521 16.778 82.666 17.4196L83.3213 19.364L80.3272 28.9237L76.7191 17.9131C76.5546 17.4031 76.4641 17.0083 76.4476 16.7286C76.4476 16.4325 76.5381 16.2187 76.7191 16.0871C76.9165 15.9555 77.229 15.8732 77.6568 15.8403V15.3468C77.3607 15.3632 76.9741 15.3797 76.497 15.3961C76.0364 15.4126 75.5346 15.4208 74.9918 15.4208C74.5312 15.4208 74.0541 15.4126 73.5606 15.3961C73.0835 15.3797 72.6805 15.3632 72.3514 15.3468V15.8403C72.6146 15.8568 72.9108 15.9637 73.2398 16.1611C73.5688 16.3585 73.8402 16.778 74.0541 17.4196L79.2854 32.9407H79.3841H79.4828H79.5815H79.6802L83.6103 20.2214L87.8973 32.9407H87.996H88.0947H88.1934H88.2921L92.9558 17.9871C93.1862 17.2304 93.4905 16.704 93.8689 16.4079C94.2472 16.0953 94.5927 15.9061 94.9052 15.8403ZM122.288 15.8403V15.3468C122.042 15.3632 121.778 15.3797 121.499 15.3961C121.219 15.4126 120.865 15.4208 120.438 15.4208C120.01 15.4208 119.549 15.4126 119.056 15.3961C118.562 15.3797 118.077 15.3632 117.6 15.3468V15.8403C118.291 15.8568 118.826 15.9637 119.204 16.1611C119.582 16.3421 119.771 16.6793 119.771 17.1728C119.788 17.6663 119.566 18.3655 119.105 19.2703L115.958 25.5411L111.85 17.6663C111.604 17.1893 111.53 16.8191 111.628 16.5559C111.727 16.2927 111.933 16.1117 112.245 16.013C112.558 15.9143 112.92 15.865 113.331 15.865V15.3468C112.805 15.3797 112.229 15.4044 111.604 15.4208H109.876C109.465 15.4208 109.079 15.4126 108.717 15.3961C108.371 15.3797 108.034 15.3632 107.705 15.3468V15.865C107.886 15.865 108.083 15.9472 108.297 16.1117C108.527 16.2598 108.807 16.6382 109.136 17.2468L114.145 26.4946V30.2017C114.145 30.7939 114.096 31.2381 113.997 31.5342C113.899 31.8303 113.701 32.0277 113.405 32.1264C113.125 32.2251 112.706 32.2909 112.147 32.3238V32.8174C112.492 32.7845 112.944 32.768 113.504 32.768C114.063 32.7516 114.664 32.7433 115.305 32.7433C115.881 32.7433 116.448 32.7516 117.008 32.768C117.584 32.768 118.061 32.7845 118.439 32.8174V32.3238C117.88 32.2909 117.452 32.2251 117.156 32.1264C116.876 32.0277 116.687 31.8303 116.588 31.5342C116.49 31.2381 116.44 30.7939 116.44 30.2017V25.708L120.314 18.0365C120.693 17.3126 121.038 16.7862 121.351 16.4572C121.663 16.1118 121.976 15.9061 122.288 15.8403Z" fill="white"/>
</svg>
