<svg width="300" height="300" viewBox="0 0 300 300" fill="none" xmlns="http://www.w3.org/2000/svg">
<g clip-path="url(#clip0_113_3915)">
<path fill-rule="evenodd" clip-rule="evenodd" d="M233.138 128.338C233.322 127.501 233.508 126.658 233.557 125.833C233.965 123.38 233.817 121.075 233.557 118.85C232.85 114.463 230.585 110.75 227.13 108.184C223.672 105.587 219.476 103.913 215.28 102.873C211.08 101.796 206.881 101.277 202.946 101.054C198.3 100.756 193.953 100.791 189.977 101.054V179.221C197.666 173.052 204.987 166.661 211.599 160.012C215.873 155.665 219.997 151.355 223.6 146.861C225.346 144.593 227.02 142.328 228.468 140.061C229.992 137.573 230.846 136.085 231.923 133.076C232.07 132.552 232.21 132.028 232.35 131.508C232.526 130.848 232.701 130.193 232.888 129.548C232.96 129.148 233.049 128.744 233.138 128.338ZM113.186 190.55H175.155C177.012 189.215 178.868 187.84 180.689 186.426V183.568H113.186V190.55ZM113.186 203.255H156.096C159.774 201.025 163.415 198.685 166.983 196.273H113.186V203.255ZM113.186 215.963H133.545C137.93 213.805 142.277 211.431 146.586 208.978H113.186V215.963ZM115.332 223.966C115.569 223.874 115.807 223.782 116.047 223.69C117.718 223.058 119.389 222.389 121.063 221.683H113.186V224.767C113.913 224.517 114.617 224.243 115.332 223.966ZM89.3719 231.234C92.2708 230.747 95.2769 230.191 98.2511 229.45C100.556 228.891 102.859 228.26 105.161 227.518V147.159C102.152 150.872 98.8825 155.256 95.4275 160.125C90.7475 166.699 85.9546 174.428 81.2746 183.081C76.667 191.703 72.2071 201.547 70.0148 211.949C68.9752 217.003 68.7521 222.537 70.5361 226.18C71.4281 227.961 72.6184 229.189 74.3994 230.116C76.1834 230.97 78.5234 231.529 81.124 231.677C83.7999 231.825 86.4353 231.639 89.3719 231.234ZM148.179 66.69H109.485V71.5901H148.179V66.69ZM148.179 57.9208H109.485V62.8209H148.179V57.9208ZM148.179 49.1487H109.485V54.0488H148.179V49.1487ZM148.179 40.3795H109.485V45.2797H148.179V40.3795ZM148.179 31.6075H109.485V36.5076H148.179V31.6075ZM148.179 22.8354H109.485V27.7384H148.179V22.8354ZM148.179 14.0634H109.485V18.9663H148.179V14.0634ZM148.179 5.29417H109.485V10.1942H148.179V5.29417ZM180.689 88.9402V81.9579H113.186V88.9402H180.689ZM180.689 177.845V170.86H113.186V177.845H180.689ZM180.689 165.141V158.155H113.186V165.141H180.689ZM180.689 152.433V145.448H113.186V152.433H180.689ZM180.689 132.743H166.971H113.186V139.766H180.689V132.743ZM180.689 127.058V120.073H113.186V127.058H180.689ZM180.689 114.353V107.368H113.186V114.353H180.689ZM113.186 101.645H180.689V94.6628H113.186V101.645ZM237.643 108.633C239.427 111.159 240.765 114.13 241.509 117.211C242.137 120.296 242.473 123.53 242.213 126.612C242.187 127.721 242.036 128.776 241.885 129.839C241.818 130.309 241.751 130.779 241.694 131.257C241.645 131.769 241.531 132.267 241.417 132.77C241.357 133.031 241.297 133.295 241.245 133.562L240.988 134.674L240.878 135.271L240.802 135.529L240.765 135.679C240.752 135.73 240.757 135.728 240.761 135.726C240.77 135.723 240.776 135.72 240.655 136.085C240.02 138.538 238.425 142.363 236.939 144.967C235.453 147.788 233.704 150.429 231.923 153.067C228.283 158.228 224.307 163.206 219.884 167.927C210.895 177.695 200.826 186.945 189.977 195.529C186.968 197.944 183.849 200.322 180.689 202.586C180.394 202.847 180.058 203.073 179.763 203.255C177.087 205.227 174.339 207.121 171.587 208.978C168.022 211.393 164.417 213.733 160.779 215.963C160.019 216.46 159.238 216.939 158.466 217.413C158.144 217.611 157.824 217.808 157.507 218.005C155.355 219.267 153.16 220.495 150.968 221.683C146.473 224.136 141.906 226.476 137.261 228.668C132.914 230.712 128.494 232.644 124.034 234.353C123.771 234.449 123.513 234.551 123.255 234.653C122.824 234.823 122.395 234.992 121.952 235.132C121.84 235.175 121.728 235.218 121.616 235.262C121.246 235.404 120.875 235.548 120.504 235.688C114.078 238.028 107.539 239.887 100.889 241.225C97.5821 241.932 94.2401 242.415 90.8576 242.861C87.4779 243.232 83.7623 243.383 80.1944 243.009C76.557 242.711 72.6907 241.819 69.0504 239.702C65.4101 237.66 62.3635 234.13 60.8778 230.339C59.3893 226.551 59.0562 222.835 59.2039 219.418C59.3516 215.998 59.9482 212.803 60.7273 209.797C62.2506 203.776 64.5558 198.39 67.0435 193.374C69.5341 188.361 72.2448 183.716 74.9931 179.406C80.455 170.747 86.2876 163.429 91.6018 157.15C96.4672 151.431 101.147 146.748 105.161 142.922V81.1759V0.000216827H153.458V76.7566H189.977V97.747C193.878 97.0751 198.228 96.5944 202.98 96.4467C207.18 96.3338 211.674 96.4467 216.429 97.191C221.185 97.97 226.314 99.308 231.144 102.465C233.484 104.06 235.859 106.03 237.643 108.633ZM198.05 262.572L210.769 295.361C211.29 296.681 211.881 297.567 212.541 298.019C213.202 298.436 213.81 298.662 214.366 298.697V299.74C213.671 299.67 212.819 299.635 211.812 299.635C210.804 299.6 209.796 299.583 208.788 299.583C207.433 299.583 206.164 299.6 204.983 299.635C203.801 299.635 202.845 299.67 202.116 299.74V298.697C203.888 298.627 205.017 298.332 205.504 297.811C205.991 297.255 205.886 296.09 205.191 294.318L201.992 285.769H189.386L187.259 291.295C186.703 292.685 186.373 293.866 186.269 294.839C186.164 295.778 186.251 296.525 186.529 297.081C186.842 297.637 187.346 298.037 188.041 298.28C188.771 298.523 189.674 298.662 190.752 298.697V299.74C189.779 299.67 188.753 299.635 187.676 299.635C186.634 299.6 185.66 299.583 184.757 299.583C183.888 299.583 183.141 299.6 182.515 299.635C181.925 299.635 181.369 299.67 180.847 299.74V298.697C181.542 298.523 182.255 298.124 182.985 297.498C183.714 296.838 184.375 295.726 184.965 294.162L197.216 262.572H197.633H198.05ZM195.778 269.165L201.602 284.726H189.788L195.778 269.165ZM59.8671 262.937C58.6855 262.902 57.7298 262.867 57 262.832V263.875C58.1816 263.91 59.0678 264.049 59.6586 264.292C60.2841 264.501 60.7011 264.918 60.9096 265.543C61.1182 266.134 61.2224 267.072 61.2224 268.358V294.214C61.2224 295.465 61.1182 296.403 60.9096 297.029C60.7011 297.654 60.2841 298.071 59.6586 298.28C59.0678 298.488 58.1816 298.627 57 298.697V299.74C57.7298 299.67 58.6855 299.635 59.8671 299.635C61.0487 299.6 62.2476 299.583 63.4639 299.583C65.6186 299.583 67.4605 299.618 68.9896 299.687C70.5187 299.722 71.6655 299.74 72.43 299.74C75.0365 299.74 77.278 299.305 79.1546 298.436C81.0313 297.567 82.4561 296.386 83.4292 294.892C84.437 293.362 84.9409 291.607 84.9409 289.627C84.9409 288.202 84.6281 286.846 84.0026 285.561C83.377 284.275 82.2823 283.163 80.7185 282.224C79.1894 281.251 77.0521 280.591 74.3067 280.243V280.139C76.2528 279.548 77.7993 278.784 78.9461 277.845C80.1277 276.872 80.9618 275.812 81.4483 274.666C81.9696 273.484 82.2302 272.285 82.2302 271.069C82.2302 268.671 81.3093 266.707 79.4674 265.178C77.6255 263.649 74.8801 262.885 71.2311 262.885C70.6055 262.885 69.5456 262.902 68.0513 262.937C66.5569 262.971 64.993 262.989 63.3597 262.989C62.2129 262.989 61.0487 262.971 59.8671 262.937ZM66.8002 264.761C67.2867 264.17 68.3293 263.875 69.9279 263.875C72.5343 263.875 74.3936 264.535 75.5056 265.856C76.6525 267.142 77.2259 269.071 77.2259 271.642C77.2259 273.137 77.0174 274.544 76.6003 275.865C76.1833 277.15 75.4188 278.193 74.3067 278.992C73.1946 279.757 71.6134 280.139 69.563 280.139H66.0704V268.358C66.0704 266.551 66.3136 265.352 66.8002 264.761ZM66.0704 281.025V294.214C66.0704 295.43 66.1746 296.351 66.3831 296.977C66.5917 297.602 66.9739 298.019 67.53 298.228C68.086 298.436 68.9027 298.541 69.98 298.541C73.3857 298.541 75.8532 297.759 77.3823 296.195C78.9461 294.596 79.728 292.337 79.728 289.418C79.728 286.742 78.9982 284.674 77.5386 283.215C76.1138 281.755 73.7506 281.025 70.4492 281.025H66.0704ZM102.415 263.875V262.832C101.616 262.867 100.608 262.902 99.3915 262.937C98.2099 262.971 97.011 262.989 95.7946 262.989C94.4393 262.989 93.1708 262.971 91.9892 262.937C90.8077 262.902 89.852 262.867 89.1222 262.832V263.875C90.3038 263.91 91.1899 264.049 91.7807 264.292C92.4063 264.501 92.8233 264.918 93.0318 265.543C93.2403 266.134 93.3446 267.072 93.3446 268.358V294.214C93.3446 295.465 93.2403 296.403 93.0318 297.029C92.8233 297.654 92.4063 298.071 91.7807 298.28C91.1899 298.488 90.3038 298.627 89.1222 298.697V299.74C89.852 299.67 90.8077 299.635 91.9892 299.635C93.1708 299.6 94.4393 299.583 95.7946 299.583C97.011 299.583 98.2099 299.6 99.3915 299.635C100.608 299.635 101.616 299.67 102.415 299.74V298.697C101.233 298.627 100.33 298.488 99.7043 298.28C99.1135 298.071 98.7138 297.654 98.5053 297.029C98.2968 296.403 98.1925 295.465 98.1925 294.214V268.358C98.1925 267.072 98.2968 266.134 98.5053 265.543C98.7138 264.918 99.1135 264.501 99.7043 264.292C100.33 264.049 101.233 263.91 102.415 263.875ZM135.458 262.832C135.319 264.153 135.214 265.439 135.145 266.69C135.11 267.906 135.093 268.845 135.093 269.505C135.093 270.339 135.11 271.121 135.145 271.851C135.18 272.581 135.214 273.223 135.249 273.779H134.05C133.807 271.347 133.477 269.435 133.06 268.045C132.643 266.62 131.913 265.595 130.87 264.97C129.828 264.344 128.212 264.031 126.022 264.031H123.207V293.693C123.207 295.083 123.329 296.125 123.572 296.82C123.85 297.515 124.372 297.984 125.136 298.228C125.901 298.471 127.013 298.627 128.472 298.697V299.74C127.569 299.67 126.422 299.635 125.032 299.635C123.642 299.6 122.234 299.583 120.809 299.583C119.246 299.583 117.769 299.6 116.378 299.635C115.023 299.635 113.928 299.67 113.094 299.74V298.697C114.554 298.627 115.666 298.471 116.431 298.228C117.195 297.984 117.699 297.515 117.942 296.82C118.22 296.125 118.359 295.083 118.359 293.693V264.031H115.544C113.39 264.031 111.774 264.344 110.696 264.97C109.654 265.595 108.924 266.62 108.507 268.045C108.09 269.435 107.76 271.347 107.517 273.779H106.318C106.387 273.223 106.422 272.581 106.422 271.851C106.457 271.121 106.474 270.339 106.474 269.505C106.474 268.845 106.439 267.906 106.37 266.69C106.335 265.439 106.248 264.153 106.109 262.832C107.569 262.867 109.15 262.902 110.853 262.937C112.59 262.971 114.328 262.989 116.066 262.989H120.809H125.501C127.239 262.989 128.976 262.971 130.714 262.937C132.451 262.902 134.033 262.867 135.458 262.832ZM184.255 263.875V262.832C183.733 262.867 183.177 262.902 182.587 262.937C181.996 262.971 181.249 262.989 180.345 262.989C179.442 262.989 178.468 262.971 177.426 262.937C176.383 262.902 175.358 262.867 174.35 262.832V263.875C175.81 263.91 176.905 264.153 177.634 264.605C178.364 265.022 178.746 265.769 178.781 266.846C178.851 267.889 178.573 269.366 177.947 271.277L171.528 291.457L164.029 268.254C163.612 266.898 163.438 265.925 163.508 265.335C163.612 264.744 163.959 264.362 164.55 264.188C165.176 264.014 166.01 263.91 167.052 263.875V262.832C166.323 262.867 165.367 262.902 164.185 262.937C163.004 262.971 161.735 262.989 160.38 262.989C159.511 262.989 158.607 262.971 157.669 262.937C156.731 262.902 155.949 262.867 155.323 262.832V263.875C155.81 263.91 156.331 264.136 156.887 264.553C157.443 264.97 157.947 265.856 158.399 267.211L159.783 271.319L153.458 291.514L145.836 268.254C145.488 267.177 145.297 266.342 145.263 265.752C145.263 265.126 145.454 264.674 145.836 264.396C146.253 264.118 146.913 263.945 147.817 263.875V262.832C147.191 262.867 146.375 262.902 145.367 262.937C144.394 262.971 143.334 262.989 142.187 262.989C141.214 262.989 140.206 262.971 139.164 262.937C138.156 262.902 137.304 262.867 136.609 262.832V263.875C137.165 263.91 137.791 264.136 138.486 264.553C139.181 264.97 139.754 265.856 140.206 267.211L151.257 300H151.466H151.674H151.883H152.091L160.394 273.13L169.45 300H169.659H169.867H170.076H170.284L180.137 268.41C180.623 266.812 181.266 265.7 182.065 265.074C182.865 264.414 183.594 264.014 184.255 263.875ZM242.102 263.875V262.832C241.581 262.867 241.025 262.902 240.434 262.937C239.843 262.971 239.096 262.989 238.193 262.989C237.289 262.989 236.316 262.971 235.273 262.937L234.571 262.913C234.283 262.904 233.997 262.894 233.712 262.884L233.287 262.87L232.198 262.832V263.875C233.658 263.91 234.787 264.136 235.586 264.553C236.386 264.935 236.785 265.647 236.785 266.69C236.82 267.733 236.351 269.21 235.378 271.121L228.729 284.368L220.052 267.733C219.531 266.725 219.374 265.943 219.583 265.387C219.791 264.831 220.226 264.448 220.886 264.24C221.546 264.031 222.311 263.927 223.18 263.927V262.832C222.068 262.902 220.851 262.954 219.531 262.989H215.882C215.013 262.989 214.196 262.971 213.432 262.937C212.702 262.902 211.989 262.867 211.294 262.832V263.927C211.677 263.927 212.094 264.101 212.545 264.448C213.032 264.761 213.623 265.561 214.318 266.846L224.9 286.383V294.214C224.9 295.465 224.796 296.403 224.587 297.029C224.379 297.654 223.962 298.071 223.336 298.28C222.745 298.488 221.859 298.627 220.678 298.697V299.74C221.407 299.67 222.363 299.635 223.545 299.635C224.726 299.6 225.995 299.583 227.35 299.583C228.566 299.583 229.765 299.6 230.947 299.635C232.163 299.635 233.171 299.67 233.97 299.74V298.697C232.789 298.627 231.885 298.488 231.26 298.28C230.669 298.071 230.269 297.654 230.061 297.029C229.852 296.403 229.748 295.465 229.748 294.214V284.721L237.932 268.514C238.731 266.985 239.461 265.873 240.121 265.178C240.782 264.448 241.442 264.014 242.102 263.875Z" fill="#3E54EB"/>
</g>
<defs>
<clipPath id="clip0_113_3915">
<rect width="300" height="300" fill="white"/>
</clipPath>
</defs>
</svg>
