<svg width="148" height="60" viewBox="0 0 148 60" fill="none" xmlns="http://www.w3.org/2000/svg">
<path fill-rule="evenodd" clip-rule="evenodd" d="M34.0433 31.2452C34.0781 31.0869 34.1131 30.9275 34.1223 30.7716C34.1995 30.308 34.1716 29.8723 34.1223 29.452C33.9888 28.6228 33.5608 27.9211 32.9078 27.4362C32.2543 26.9452 31.4612 26.6289 30.6682 26.4324C29.8745 26.2288 29.0809 26.1308 28.3371 26.0887C27.4592 26.0323 26.6376 26.0388 25.8862 26.0887V40.8616C27.3393 39.6958 28.723 38.4878 29.9725 37.2311C30.7804 36.4096 31.5598 35.5952 32.2406 34.7457C32.5707 34.3172 32.887 33.8892 33.1607 33.4606C33.4486 32.9904 33.61 32.7091 33.8136 32.1405C33.8414 32.0415 33.8679 31.9426 33.8942 31.8442C33.9276 31.7194 33.9607 31.5956 33.9959 31.4738C34.0097 31.3982 34.0265 31.3218 34.0433 31.2452ZM11.3732 43.0027H23.0849C23.4358 42.7504 23.7866 42.4904 24.1309 42.2233V41.6831H11.3732V43.0027ZM11.3732 45.4038H19.483C20.1781 44.9824 20.8661 44.5401 21.5404 44.0842H11.3732V45.4038ZM11.3732 47.8055H15.221C16.0496 47.3977 16.8711 46.9489 17.6856 46.4853H11.3732V47.8055ZM11.7788 49.318C11.8236 49.3006 11.8686 49.2832 11.914 49.2658C12.2298 49.1465 12.5456 49.02 12.862 48.8865H11.3732V49.4694C11.5106 49.4221 11.6436 49.3705 11.7788 49.318ZM6.87258 50.6916C7.42045 50.5996 7.98858 50.4945 8.55068 50.3544C8.98636 50.2488 9.42148 50.1294 9.85661 49.9893V34.8021C9.28793 35.5038 8.67 36.3324 8.01704 37.2525C7.13256 38.4949 6.22673 39.9557 5.34225 41.5912C4.47146 43.2205 3.62857 45.0809 3.21425 47.0469C3.01776 48.002 2.97561 49.0479 3.31276 49.7365C3.48134 50.0731 3.70629 50.3051 4.0429 50.4803C4.38005 50.6417 4.82229 50.7474 5.31379 50.7753C5.81952 50.8032 6.31759 50.7682 6.87258 50.6916ZM17.9866 19.5941H10.6738V20.5202H17.9866V19.5941ZM17.9866 17.9368H10.6738V18.8628H17.9866V17.9368ZM17.9866 16.2789H10.6738V17.205H17.9866V16.2789ZM17.9866 14.6216H10.6738V15.5477H17.9866V14.6216ZM17.9866 12.9638H10.6738V13.8898H17.9866V12.9638ZM17.9866 11.3059H10.6738V12.2325H17.9866V11.3059ZM17.9866 9.64806H10.6738V10.5747H17.9866V9.64806ZM17.9866 7.99075H10.6738V8.91682H17.9866V7.99075ZM24.1309 23.7992V22.4796H11.3732V23.7992H24.1309ZM24.1309 40.6016V39.2814H11.3732V40.6016H24.1309ZM24.1309 38.2005V36.8803H11.3732V38.2005H24.1309ZM24.1309 35.7988V34.4786H11.3732V35.7988H24.1309ZM24.1309 32.0775H21.5382H11.3732V33.4048H24.1309V32.0775ZM24.1309 31.0031V29.683H11.3732V31.0031H24.1309ZM24.1309 28.602V27.2818H11.3732V28.602H24.1309ZM11.3732 26.2003H24.1309V24.8807H11.3732V26.2003ZM34.8946 27.521C35.2318 27.9983 35.4846 28.5598 35.6253 29.1422C35.7441 29.7251 35.8076 30.3365 35.7583 30.9188C35.7534 31.1285 35.725 31.3278 35.6964 31.5288C35.6837 31.6175 35.6711 31.7064 35.6603 31.7967C35.651 31.8936 35.6295 31.9876 35.6079 32.0826C35.5966 32.1321 35.5852 32.1818 35.5755 32.2324L35.5268 32.4426L35.506 32.5553L35.4918 32.604L35.4846 32.6325C35.4822 32.6421 35.4831 32.6417 35.484 32.6414C35.4855 32.6407 35.4868 32.6402 35.4638 32.7091C35.344 33.1727 35.0424 33.8957 34.7616 34.3878C34.4808 34.9209 34.1503 35.42 33.8136 35.9187C33.1257 36.894 32.3742 37.8348 31.5384 38.727C29.8395 40.5731 27.9365 42.3213 25.8862 43.9436C25.3175 44.4 24.728 44.8494 24.1309 45.2774C24.0751 45.3267 24.0116 45.3693 23.9557 45.4038C23.45 45.7766 22.9306 46.1345 22.4106 46.4853C21.7369 46.9418 21.0555 47.3841 20.368 47.8055C20.2243 47.8994 20.0768 47.99 19.9309 48.0796C19.87 48.117 19.8094 48.1542 19.7495 48.1914C19.3429 48.43 18.928 48.6621 18.5137 48.8865C17.6642 49.3501 16.8011 49.7923 15.9232 50.2066C15.1016 50.593 14.2664 50.9581 13.4235 51.281C13.3738 51.2992 13.3249 51.3185 13.2763 51.3377C13.1947 51.3699 13.1136 51.4019 13.03 51.4283C13.0089 51.4364 12.9877 51.4446 12.9666 51.4527C12.8967 51.4798 12.8265 51.5069 12.7563 51.5333C11.5418 51.9756 10.306 52.327 9.0493 52.5798C8.42425 52.7134 7.79263 52.8048 7.15336 52.8891C6.51463 52.9591 5.81241 52.9876 5.1381 52.917C4.45066 52.8606 3.71997 52.692 3.03198 52.2919C2.34399 51.9061 1.76821 51.2389 1.48743 50.5224C1.2061 49.8065 1.14316 49.1043 1.17107 48.4585C1.19898 47.8121 1.31173 47.2084 1.45896 46.6402C1.74686 45.5023 2.18253 44.4843 2.65269 43.5363C3.12339 42.5889 3.63568 41.711 4.1551 40.8966C5.18736 39.2601 6.28967 37.877 7.29402 36.6904C8.21353 35.6094 9.09801 34.7244 9.85661 34.0014V22.3318V6.99023H18.9844V21.4966H25.8862V25.4636C26.6234 25.3366 27.4455 25.2458 28.3437 25.2179C29.1373 25.1965 29.9867 25.2179 30.8854 25.3585C31.7842 25.5058 32.7535 25.7586 33.6664 26.3552C34.1087 26.6568 34.5575 27.029 34.8946 27.521ZM121.722 18.2681L128.947 36.8935C129.243 37.6436 129.579 38.147 129.954 38.4037C130.329 38.6406 130.675 38.7689 130.991 38.7886V39.3808C130.596 39.3413 130.112 39.3216 129.54 39.3216C128.967 39.3019 128.395 39.292 127.822 39.292C127.052 39.292 126.332 39.3019 125.661 39.3216C124.989 39.3216 124.446 39.3413 124.032 39.3808V38.7886C125.039 38.7491 125.68 38.5813 125.957 38.2852C126.233 37.9694 126.174 37.3081 125.779 36.3013L123.962 31.445H116.801L115.593 34.5838C115.277 35.3735 115.089 36.0446 115.03 36.5974C114.971 37.1304 115.02 37.5548 115.178 37.8707C115.356 38.1865 115.642 38.4135 116.037 38.5517C116.451 38.6899 116.965 38.7689 117.577 38.7886V39.3808C117.024 39.3413 116.442 39.3216 115.83 39.3216C115.237 39.3019 114.685 39.292 114.171 39.292C113.678 39.292 113.253 39.3019 112.898 39.3216C112.563 39.3216 112.247 39.3413 111.951 39.3808V38.7886C112.345 38.6899 112.75 38.4629 113.165 38.1076C113.579 37.7325 113.954 37.1008 114.29 36.2124L121.248 18.2681H121.485H121.722ZM120.432 22.0134L123.74 30.8528H117.029L120.432 22.0134ZM43.229 18.4754C42.5578 18.4556 42.0149 18.4359 41.6003 18.4162V19.0084C42.2715 19.0281 42.7749 19.1071 43.1105 19.2453C43.4658 19.3637 43.7027 19.6006 43.8212 19.9559C43.9396 20.2915 43.9988 20.8245 43.9988 21.5549V36.2421C43.9988 36.9527 43.9396 37.4857 43.8212 37.8411C43.7027 38.1964 43.4658 38.4333 43.1105 38.5517C42.7749 38.6702 42.2715 38.7491 41.6003 38.7886V39.3808C42.0149 39.3413 42.5578 39.3216 43.229 39.3216C43.9001 39.3019 44.5812 39.292 45.2721 39.292C46.496 39.292 47.5423 39.3117 48.4109 39.3512C49.2795 39.371 49.9309 39.3808 50.3652 39.3808C51.8458 39.3808 53.1191 39.1341 54.1851 38.6406C55.2511 38.147 56.0604 37.4758 56.6132 36.627C57.1857 35.7584 57.4719 34.7615 57.4719 33.6363C57.4719 32.8269 57.2942 32.057 56.9389 31.3266C56.5836 30.5962 55.9617 29.9645 55.0734 29.4315C54.2048 28.8787 52.9908 28.5037 51.4312 28.3063V28.247C52.5367 27.9115 53.4152 27.4772 54.0666 26.9442C54.7378 26.3914 55.2116 25.7893 55.488 25.1379C55.7841 24.4667 55.9321 23.7856 55.9321 23.0947C55.9321 21.7326 55.409 20.6172 54.3627 19.7487C53.3165 18.8801 51.757 18.4458 49.6842 18.4458C49.3288 18.4458 48.7268 18.4556 47.8779 18.4754C47.0291 18.4951 46.1407 18.505 45.2129 18.505C44.5615 18.505 43.9001 18.4951 43.229 18.4754ZM47.1672 19.5118C47.4436 19.1762 48.0358 19.0084 48.9439 19.0084C50.4245 19.0084 51.4806 19.3835 52.1123 20.1336C52.7637 20.864 53.0895 21.9596 53.0895 23.4204C53.0895 24.2693 52.971 25.0688 52.7341 25.8189C52.4972 26.5493 52.0629 27.1416 51.4312 27.5956C50.7995 28.0299 49.9013 28.247 48.7366 28.247H46.7527V21.5549C46.7527 20.5284 46.8909 19.8474 47.1672 19.5118ZM46.7527 28.7504V36.2421C46.7527 36.933 46.8119 37.4561 46.9303 37.8114C47.0488 38.1668 47.2659 38.4037 47.5818 38.5221C47.8976 38.6406 48.3616 38.6998 48.9735 38.6998C50.9081 38.6998 52.3097 38.2556 53.1783 37.3673C54.0666 36.4592 54.5108 35.1761 54.5108 33.5178C54.5108 31.9978 54.0962 30.8232 53.2671 29.9941C52.4578 29.165 51.1154 28.7504 49.24 28.7504H46.7527ZM67.3979 19.0084V18.4162C66.9438 18.4359 66.3714 18.4556 65.6804 18.4754C65.0092 18.4951 64.3282 18.505 63.6373 18.505C62.8674 18.505 62.1468 18.4951 61.4757 18.4754C60.8045 18.4556 60.2616 18.4359 59.847 18.4162V19.0084C60.5182 19.0281 61.0216 19.1071 61.3572 19.2453C61.7125 19.3637 61.9494 19.6006 62.0679 19.9559C62.1863 20.2915 62.2455 20.8245 62.2455 21.5549V36.2421C62.2455 36.9527 62.1863 37.4857 62.0679 37.8411C61.9494 38.1964 61.7125 38.4333 61.3572 38.5517C61.0216 38.6702 60.5182 38.7491 59.847 38.7886V39.3808C60.2616 39.3413 60.8045 39.3216 61.4757 39.3216C62.1468 39.3019 62.8674 39.292 63.6373 39.292C64.3282 39.292 65.0092 39.3019 65.6804 39.3216C66.3714 39.3216 66.9438 39.3413 67.3979 39.3808V38.7886C66.7267 38.7491 66.2134 38.6702 65.8581 38.5517C65.5225 38.4333 65.2955 38.1964 65.177 37.8411C65.0586 37.4857 64.9994 36.9527 64.9994 36.2421V21.5549C64.9994 20.8245 65.0586 20.2915 65.177 19.9559C65.2955 19.6006 65.5225 19.3637 65.8581 19.2453C66.2134 19.1071 66.7267 19.0281 67.3979 19.0084ZM86.1674 18.4162C86.0884 19.1663 86.0292 19.8967 85.9897 20.6074C85.97 21.2983 85.9601 21.8313 85.9601 22.2064C85.9601 22.6802 85.97 23.1243 85.9897 23.5389C86.0095 23.9534 86.0292 24.3186 86.049 24.6345H85.3679C85.2297 23.2526 85.0422 22.1669 84.8053 21.3773C84.5684 20.5679 84.1538 19.9855 83.5616 19.6302C82.9694 19.2749 82.0515 19.0972 80.8078 19.0972H79.2088V35.9459C79.2088 36.7356 79.2779 37.3278 79.4161 37.7226C79.574 38.1174 79.8701 38.3839 80.3044 38.5221C80.7387 38.6603 81.3704 38.7491 82.1995 38.7886V39.3808C81.6862 39.3413 81.0348 39.3216 80.2452 39.3216C79.4555 39.3019 78.656 39.292 77.8467 39.292C76.9583 39.292 76.1194 39.3019 75.3297 39.3216C74.5598 39.3216 73.938 39.3413 73.4642 39.3808V38.7886C74.2933 38.7491 74.925 38.6603 75.3593 38.5221C75.7936 38.3839 76.0799 38.1174 76.2181 37.7226C76.376 37.3278 76.455 36.7356 76.455 35.9459V19.0972H74.856C73.632 19.0972 72.7141 19.2749 72.1021 19.6302C71.5099 19.9855 71.0953 20.5679 70.8584 21.3773C70.6216 22.1669 70.434 23.2526 70.2958 24.6345H69.6148C69.6543 24.3186 69.674 23.9534 69.674 23.5389C69.6937 23.1243 69.7036 22.6802 69.7036 22.2064C69.7036 21.8313 69.6839 21.2983 69.6444 20.6074C69.6246 19.8967 69.5753 19.1663 69.4963 18.4162C70.3254 18.4359 71.2237 18.4556 72.1909 18.4754C73.178 18.4951 74.165 18.505 75.1521 18.505H77.8467H80.5117C81.4987 18.505 82.4857 18.4951 83.4728 18.4754C84.4598 18.4556 85.358 18.4359 86.1674 18.4162ZM113.886 19.0084V18.4162C113.59 18.4359 113.274 18.4556 112.939 18.4754C112.603 18.4951 112.179 18.505 111.665 18.505C111.152 18.505 110.599 18.4951 110.007 18.4754C109.415 18.4556 108.833 18.4359 108.26 18.4162V19.0084C109.089 19.0281 109.711 19.1663 110.126 19.4229C110.54 19.6598 110.757 20.0842 110.777 20.6962C110.816 21.2884 110.659 22.1274 110.303 23.2132L106.657 34.6762L102.397 21.4957C102.16 20.7258 102.061 20.1731 102.101 19.8375C102.16 19.5019 102.358 19.2847 102.693 19.186C103.049 19.0873 103.522 19.0281 104.115 19.0084V18.4162C103.7 18.4359 103.157 18.4556 102.486 18.4754C101.815 18.4951 101.094 18.505 100.324 18.505C99.8308 18.505 99.3175 18.4951 98.7845 18.4754C98.2515 18.4556 97.8073 18.4359 97.452 18.4162V19.0084C97.7284 19.0281 98.0245 19.1564 98.3403 19.3933C98.6562 19.6302 98.9424 20.1336 99.1991 20.9035L99.9855 23.2368L96.3926 34.7085L92.0628 21.4957C91.8654 20.8837 91.7568 20.41 91.7371 20.0744C91.7371 19.719 91.8456 19.4624 92.0628 19.3045C92.2997 19.1466 92.6748 19.0479 93.188 19.0084V18.4162C92.8327 18.4359 92.3688 18.4556 91.7963 18.4754C91.2435 18.4951 90.6415 18.505 89.99 18.505C89.4373 18.505 88.8648 18.4951 88.2726 18.4754C87.7001 18.4556 87.2164 18.4359 86.8216 18.4162V19.0084C87.1375 19.0281 87.4928 19.1564 87.8876 19.3933C88.2824 19.6302 88.6082 20.1336 88.8648 20.9035L95.1423 39.5289H95.2608H95.3792H95.4977H95.6161L100.332 24.2657L105.477 39.5289H105.595H105.714H105.832H105.95L111.547 21.5845C111.823 20.6765 112.188 20.0448 112.643 19.6894C113.097 19.3144 113.511 19.0873 113.886 19.0084ZM146.746 19.0084V18.4162C146.45 18.4359 146.134 18.4556 145.798 18.4754C145.463 18.4951 145.038 18.505 144.525 18.505C144.012 18.505 143.459 18.4951 142.867 18.4754C142.275 18.4556 141.692 18.4359 141.12 18.4162V19.0084C141.949 19.0281 142.591 19.1564 143.045 19.3933C143.499 19.6105 143.726 20.0152 143.726 20.6074C143.745 21.1996 143.479 22.0386 142.926 23.1243L139.149 30.6493L134.22 21.1996C133.924 20.6271 133.836 20.183 133.954 19.8671C134.072 19.5512 134.319 19.3341 134.694 19.2157C135.069 19.0972 135.504 19.038 135.997 19.038V18.4162C135.365 18.4556 134.674 18.4852 133.924 18.505H131.852C131.358 18.505 130.894 18.4951 130.46 18.4754C130.045 18.4556 129.641 18.4359 129.246 18.4162V19.038C129.463 19.038 129.7 19.1367 129.956 19.3341C130.233 19.5118 130.568 19.9658 130.963 20.6962L136.974 31.7936V36.2421C136.974 36.9527 136.915 37.4857 136.797 37.8411C136.678 38.1964 136.441 38.4333 136.086 38.5517C135.75 38.6702 135.247 38.7491 134.576 38.7886V39.3808C134.99 39.3413 135.533 39.3216 136.204 39.3216C136.876 39.3019 137.596 39.292 138.366 39.292C139.057 39.292 139.738 39.3019 140.409 39.3216C141.1 39.3216 141.673 39.3413 142.127 39.3808V38.7886C141.455 38.7491 140.942 38.6702 140.587 38.5517C140.251 38.4333 140.024 38.1964 139.906 37.8411C139.787 37.4857 139.728 36.9527 139.728 36.2421V30.8496L144.377 21.6438C144.831 20.7752 145.246 20.1435 145.621 19.7487C145.996 19.3341 146.371 19.0873 146.746 19.0084Z" fill="#3E54EB"/>
</svg>
